<svg width="30" height="17" viewBox="0 0 30 17" fill="none" xmlns="http://www.w3.org/2000/svg">
<g clip-path="url(#clip0_1096:680)">
<path d="M0.168457 0.5H29.2594V16.5H0.168457V0.5Z" fill="#0038A8"/>
<path d="M0.168457 0.5H29.2594V11.1667H0.168457V0.5Z" fill="white"/>
<path d="M0.168457 0.5H29.2594V5.89589H0.168457V0.5Z" fill="#D52B1E"/>
<path d="M16.7418 8.49937C16.7418 9.61981 15.8342 10.5279 14.7138 10.5279C13.5939 10.5279 12.6858 9.61981 12.6858 8.49937C12.6858 7.37942 13.594 6.47188 14.7138 6.47188C15.8342 6.47188 16.7418 7.37942 16.7418 8.49937Z" fill="white" stroke="black" stroke-width="0.113907" stroke-miterlimit="10"/>
<path d="M15.6945 8.18537C15.6453 8.18343 15.645 8.23768 15.645 8.23768C15.645 8.23768 15.6467 8.22164 15.6453 8.23987C15.6444 8.25788 15.6534 8.30181 15.6897 8.30539C15.7281 8.30876 15.7409 8.26391 15.7412 8.24214C15.7412 8.23351 15.7384 8.18648 15.6945 8.18542" fill="#009B3A"/>
<path d="M15.6945 8.18537C15.6453 8.18343 15.645 8.23768 15.645 8.23768C15.645 8.23768 15.6467 8.22164 15.6453 8.23987C15.6444 8.25788 15.6534 8.30181 15.6897 8.30539C15.7281 8.30876 15.7409 8.26391 15.7412 8.24214C15.7412 8.23351 15.7384 8.18648 15.6945 8.18542" stroke="black" stroke-width="0.0304308"/>
<path d="M13.4416 9.31113L13.4243 9.28236C13.4225 9.27916 13.418 9.27387 13.4107 9.266C13.4073 9.26212 13.4025 9.25974 13.3973 9.25938C13.3918 9.25858 13.3862 9.25972 13.3815 9.26258C13.3748 9.2667 13.3703 9.2722 13.3696 9.27894C13.3683 9.2858 13.3715 9.29523 13.3791 9.30796L13.3967 9.3379L13.4416 9.31113ZM13.6133 9.30124L13.3927 9.43244L13.3253 9.31928C13.3128 9.29804 13.3053 9.28117 13.3023 9.26784C13.2988 9.25429 13.3005 9.24158 13.3061 9.22895C13.3117 9.2162 13.3218 9.20558 13.3359 9.19712C13.3467 9.19051 13.3591 9.1867 13.3718 9.18604C13.3841 9.18604 13.3954 9.1891 13.4063 9.19489C13.4131 9.19877 13.4209 9.20478 13.4295 9.21351C13.4275 9.20408 13.4263 9.19664 13.4268 9.19087C13.4282 9.18486 13.43 9.17895 13.4321 9.17317C13.4351 9.16493 13.4379 9.15916 13.4397 9.1555L13.4843 9.08452L13.5297 9.16161L13.4843 9.23814C13.4786 9.24781 13.4751 9.25526 13.4747 9.26044C13.4744 9.26762 13.476 9.27387 13.4794 9.28001L13.4832 9.28626L13.5725 9.23307L13.6133 9.30124ZM13.2249 9.12161L13.1576 8.92035L13.2095 8.90289L13.2517 9.02905L13.2906 9.01596L13.2509 8.89887L13.3008 8.8826L13.34 8.99911L13.3878 8.98367L13.3447 8.85385L13.3998 8.83509L13.4682 9.04013L13.2249 9.12161ZM13.2321 8.71191L13.2294 8.69307C13.2276 8.67736 13.2238 8.66723 13.218 8.66195C13.2151 8.65932 13.2116 8.65735 13.2079 8.65617C13.2041 8.65499 13.2002 8.65463 13.1963 8.65511C13.1889 8.65611 13.1821 8.65969 13.1771 8.66522C13.172 8.67138 13.1703 8.68151 13.1725 8.69625L13.1746 8.71889L13.2321 8.71191ZM13.1323 8.80379L13.117 8.67303C13.1139 8.64495 13.118 8.62255 13.1297 8.60675C13.1418 8.59109 13.1604 8.58166 13.1853 8.57882C13.211 8.57562 13.2322 8.58115 13.2484 8.59475C13.2643 8.60854 13.2745 8.63152 13.2783 8.66311L13.2832 8.70617L13.3776 8.69518L13.3869 8.77431L13.1323 8.80379ZM13.1234 8.30343L13.1316 8.22464L13.2839 8.24103C13.2983 8.24266 13.3123 8.2466 13.3253 8.25271C13.3383 8.25852 13.3497 8.26746 13.3584 8.27875C13.3672 8.29009 13.3733 8.30093 13.3762 8.31261C13.3801 8.32803 13.3812 8.34692 13.3787 8.36861C13.3773 8.38213 13.3749 8.39553 13.3716 8.40871C13.3684 8.42318 13.3634 8.43514 13.3572 8.44432C13.3506 8.45413 13.3422 8.46261 13.3325 8.46929C13.3231 8.47591 13.3125 8.48045 13.3012 8.48263C13.2844 8.48607 13.2699 8.48675 13.2573 8.48534L13.1057 8.46934L13.1139 8.39043L13.2694 8.4073C13.2834 8.40871 13.2946 8.40612 13.3032 8.39901C13.3119 8.39206 13.3168 8.38195 13.3185 8.36861C13.3199 8.35455 13.317 8.34374 13.3102 8.33538C13.3035 8.32675 13.293 8.32192 13.2789 8.32027L13.1234 8.30343ZM13.3785 8.08786L13.3922 8.0499C13.3963 8.03705 13.3975 8.02711 13.3947 8.01993C13.3933 8.01657 13.3912 8.01355 13.3885 8.01112C13.3858 8.00869 13.3826 8.00691 13.3791 8.00592C13.3715 8.0033 13.3652 8.00379 13.359 8.00757C13.3526 8.01145 13.3471 8.01969 13.3428 8.03254L13.3292 8.07075L13.3785 8.08786ZM13.2834 8.0545L13.2949 8.02229C13.2988 8.0105 13.2999 8.00156 13.297 7.99552C13.2949 7.98973 13.2899 7.98515 13.2822 7.98292C13.2792 7.98166 13.2759 7.98109 13.2727 7.98123C13.2695 7.98137 13.2663 7.98223 13.2634 7.98374C13.2578 7.98704 13.2532 7.99409 13.2494 8.00544L13.2374 8.03855L13.2834 8.0545ZM13.1623 8.09705L13.211 7.95664C13.2195 7.93327 13.2315 7.9177 13.2476 7.90888C13.2551 7.90484 13.2634 7.90242 13.2719 7.90179C13.2805 7.90115 13.289 7.90231 13.2971 7.9052C13.311 7.91072 13.3217 7.91926 13.3291 7.93174C13.3335 7.93998 13.3362 7.95084 13.3362 7.96345C13.3463 7.94745 13.358 7.93727 13.3709 7.9329C13.3841 7.9282 13.3985 7.92844 13.414 7.93387C13.4262 7.93809 13.4365 7.94505 13.4446 7.95424C13.4523 7.96393 13.4574 7.97455 13.4599 7.98658C13.4611 7.99433 13.4605 8.00471 13.4577 8.01758C13.4537 8.03562 13.4513 8.04704 13.4493 8.05237L13.4042 8.18158L13.1623 8.09705ZM13.293 7.76844L13.3345 7.70078L13.4996 7.80086L13.5639 7.69526L13.6177 7.72813L13.5129 7.90134L13.293 7.76844ZM13.4624 7.51618L13.5133 7.45545L13.709 7.62086L13.6579 7.68158L13.4624 7.51618ZM13.8177 7.37833L13.8844 7.34983C13.8929 7.36777 13.8978 7.38483 13.8985 7.40158C13.8991 7.41764 13.8959 7.43361 13.889 7.44813C13.8814 7.46287 13.8689 7.47715 13.8518 7.49213C13.8301 7.50983 13.8101 7.52137 13.7912 7.52643C13.7725 7.53128 13.7517 7.53009 13.7284 7.52277C13.7059 7.51535 13.6845 7.49921 13.6639 7.47501C13.637 7.44217 13.6247 7.40995 13.6274 7.37833C13.63 7.34616 13.6474 7.31727 13.6789 7.29063C13.704 7.26987 13.7273 7.25904 13.7502 7.25727C13.7726 7.25513 13.7963 7.26187 13.8202 7.27683L13.7764 7.33366C13.7697 7.32929 13.7642 7.32638 13.7594 7.32541C13.7525 7.32333 13.7451 7.32325 13.7381 7.32517C13.7309 7.32676 13.7242 7.33008 13.7186 7.33484C13.7047 7.34648 13.6987 7.36088 13.7007 7.37809C13.7019 7.39094 13.7101 7.40595 13.7243 7.42374C13.7428 7.44556 13.7587 7.45778 13.7717 7.46027C13.7855 7.46311 13.7982 7.45923 13.8101 7.44932C13.8216 7.43943 13.8279 7.42905 13.8282 7.41773C13.8285 7.40568 13.8253 7.39261 13.8177 7.37833ZM14.0771 7.22427L14.0101 7.15494L14.027 7.25007L14.0771 7.22427ZM14.117 7.26636L14.0367 7.30718L14.0449 7.35067L13.9728 7.38733L13.9422 7.11509L14.0193 7.07569L14.2217 7.26049L14.1479 7.29821L14.117 7.26636ZM14.4288 6.99909L14.4485 7.13751L14.4678 7.13467C14.4843 7.13264 14.4958 7.129 14.5024 7.1244C14.5087 7.11933 14.513 7.11286 14.5156 7.1027C14.5184 7.09327 14.5184 7.07855 14.5155 7.05802C14.5117 7.03126 14.5045 7.01334 14.4945 7.00483C14.4844 6.99635 14.469 6.99329 14.4486 6.99635L14.4288 6.99909ZM14.3426 6.95273L14.459 6.93598C14.482 6.93293 14.5006 6.93315 14.5156 6.93741C14.5302 6.94136 14.5437 6.94886 14.5549 6.95923C14.566 6.96989 14.5747 6.98274 14.5805 6.99695C14.5872 7.0124 14.5917 7.0287 14.5938 7.04539C14.598 7.07227 14.598 7.09397 14.5936 7.10941C14.5899 7.12457 14.583 7.13876 14.5734 7.15101C14.5637 7.16248 14.5528 7.17109 14.5408 7.17591C14.5262 7.18265 14.5108 7.18737 14.4949 7.18995L14.3782 7.20636L14.3426 6.95273ZM14.6915 6.90304L14.903 6.91872L14.8991 6.97329L14.7667 6.9634L14.7636 7.00408L14.8864 7.01315L14.882 7.06515L14.7598 7.05642L14.7562 7.10643L14.8925 7.11654L14.8882 7.17431L14.6726 7.15841L14.6915 6.90304ZM15.0174 6.93295L15.0936 6.95419L15.041 7.14049L15.1599 7.17409L15.1425 7.23446L14.9473 7.17918L15.0174 6.93295ZM15.4499 7.21737L15.4663 7.22798C15.4789 7.23635 15.4896 7.23989 15.4973 7.23904C15.5012 7.23877 15.505 7.23755 15.5083 7.2355C15.5116 7.23344 15.5143 7.23061 15.5163 7.22726C15.5205 7.22085 15.5222 7.21314 15.5211 7.20556C15.5196 7.19804 15.5125 7.19038 15.5002 7.18224L15.4813 7.16949L15.4499 7.21737ZM15.4436 7.08236L15.5538 7.15501C15.5776 7.17067 15.5917 7.18837 15.596 7.20745C15.6006 7.2268 15.596 7.24709 15.5818 7.26808C15.568 7.28941 15.5502 7.30192 15.5291 7.30556C15.5077 7.30898 15.4843 7.30238 15.4575 7.28481L15.4213 7.26076L15.3693 7.3401L15.3029 7.29613L15.4436 7.08236ZM15.7217 7.4732L15.7664 7.38774L15.6816 7.43361L15.7217 7.4732ZM15.6947 7.52413L15.6304 7.46095L15.5917 7.48219L15.5341 7.42558L15.6525 7.37089L15.7829 7.3106L15.8442 7.37123L15.7328 7.62178L15.6739 7.5633L15.6947 7.52413ZM15.9327 7.63533L15.9508 7.66386C15.953 7.66672 15.9569 7.67225 15.9649 7.67977C15.9686 7.68341 15.9736 7.68556 15.9788 7.6858C15.9841 7.68644 15.9895 7.68509 15.9939 7.68202C16.0007 7.67766 16.0045 7.67225 16.0057 7.66529C16.0066 7.65867 16.0031 7.64876 15.9951 7.63676L15.9768 7.60752L15.9327 7.63533ZM15.7613 7.65053L15.9774 7.51259L16.0484 7.62377C16.0615 7.64427 16.0699 7.66115 16.0739 7.67424C16.0769 7.68723 16.0758 7.70087 16.0705 7.71315C16.0653 7.72612 16.0557 7.73686 16.0422 7.74573C16.0299 7.75349 16.0182 7.75785 16.0061 7.75785C15.9945 7.75855 15.9828 7.75562 15.9712 7.75075C15.9628 7.74556 15.9549 7.73943 15.9478 7.73249C15.9501 7.74192 15.9515 7.74958 15.9513 7.75489C15.9501 7.76088 15.9486 7.76679 15.9468 7.77259C15.9448 7.77889 15.9422 7.78497 15.939 7.79072L15.8972 7.86314L15.8487 7.78755L15.8923 7.70997C15.8981 7.6996 15.9009 7.69218 15.9009 7.68699C15.9012 7.68001 15.9001 7.67341 15.8955 7.6675L15.892 7.66163L15.8041 7.71763L15.7613 7.65053ZM16.0643 7.99574L16.1411 7.93773L16.0451 7.94306L16.0643 7.99574ZM16.0176 8.03007L15.9869 7.94529L15.9431 7.94835L15.9152 7.8723L16.1891 7.8755L16.2187 7.95637L16.0107 8.13465L15.9822 8.05635L16.0176 8.03007ZM16.1403 8.3027L16.1931 8.29574L16.2083 8.41792L16.0999 8.43101C16.0816 8.40978 16.0676 8.39077 16.0601 8.37344C16.0518 8.35625 16.0464 8.33538 16.0434 8.31097C16.0395 8.28078 16.0414 8.25555 16.0499 8.23526C16.0575 8.21499 16.071 8.19812 16.09 8.18478C16.1092 8.17218 16.1317 8.16381 16.158 8.16064C16.1857 8.157 16.2107 8.15981 16.2326 8.16888C16.2545 8.17761 16.272 8.19235 16.2857 8.2131C16.2963 8.22951 16.3033 8.25203 16.3066 8.28127C16.3105 8.3092 16.3105 8.33053 16.3068 8.34505C16.3041 8.35923 16.2974 8.37234 16.2875 8.38287C16.2771 8.39425 16.2642 8.40306 16.2498 8.40859L16.2268 8.33465C16.2359 8.33007 16.2427 8.3242 16.2467 8.31579C16.2509 8.30779 16.252 8.29763 16.2509 8.28655C16.248 8.2691 16.2409 8.25615 16.2279 8.24743C16.2144 8.2387 16.1947 8.23596 16.1688 8.23918C16.1413 8.24258 16.1226 8.25048 16.1118 8.26192C16.1016 8.27395 16.0978 8.28936 16.0997 8.30779C16.1006 8.31652 16.1032 8.32466 16.1066 8.3322C16.1102 8.3402 16.1156 8.34835 16.1229 8.3585L16.1471 8.35518L16.1403 8.3027ZM16.3026 8.68709L16.2936 8.76558L16.142 8.74849C16.1275 8.74692 16.1133 8.74289 16.1002 8.73657C16.0874 8.73051 16.0762 8.7216 16.0674 8.71053C16.0587 8.69947 16.0528 8.68823 16.0499 8.67693C16.0462 8.66054 16.0453 8.64214 16.0477 8.62057C16.0494 8.6083 16.0518 8.59475 16.0548 8.58025C16.0582 8.56573 16.0633 8.55395 16.0698 8.54476C16.0764 8.53518 16.0847 8.52684 16.0942 8.5201C16.1054 8.51315 16.1156 8.50878 16.1258 8.50701C16.1425 8.50384 16.1573 8.5028 16.1698 8.50469L16.3216 8.522L16.3126 8.6003L16.1573 8.58246C16.1432 8.58095 16.132 8.58343 16.1232 8.59038C16.1147 8.59744 16.1095 8.60735 16.1081 8.62093C16.1066 8.63482 16.1092 8.6458 16.1161 8.65417C16.1228 8.66265 16.1332 8.66774 16.1471 8.66985L16.3026 8.68709ZM16.0667 8.97882L16.1632 8.98226L16.0853 8.92541L16.0667 8.97882ZM16.0094 8.97591L16.0386 8.89089L16.0028 8.86529L16.0294 8.78878L16.2402 8.96389L16.2112 9.0458L15.9381 9.05252L15.9649 8.974L16.0094 8.97591ZM16.1509 9.21189L16.1063 9.28769L16.0053 9.28803L16.0537 9.37671L16.0094 9.4516L15.9315 9.29014L15.839 9.23569L15.8797 9.16718L15.972 9.22202L16.1509 9.21189Z" fill="black"/>
<path d="M16.4112 8.49999C16.4112 9.43793 15.6511 10.198 14.7136 10.198C13.7759 10.198 13.0159 9.4379 13.0159 8.50001C13.0159 7.56275 13.7759 6.80275 14.7136 6.80275C15.6511 6.80275 16.4111 7.56275 16.4111 8.49996L16.4112 8.49999Z" stroke="black" stroke-width="0.045569" stroke-miterlimit="10"/>
<path d="M15.9769 8.49403C15.9769 9.19219 15.4115 9.75764 14.7137 9.75764C14.0158 9.75764 13.4502 9.19219 13.4502 8.49403C13.4502 7.79657 14.0158 7.23095 14.7136 7.23095C15.4115 7.23095 15.9769 7.79657 15.9769 8.49403H15.9769Z" stroke="black" stroke-width="0.045569" stroke-miterlimit="10"/>
<path d="M14.7138 8.03952L14.8199 8.34328L15.1409 8.35045L14.8851 8.54502L14.9781 8.85285L14.7138 8.66987L14.4493 8.85285L14.5419 8.54502L14.2856 8.35045L14.6073 8.34328L14.7138 8.03952Z" fill="#FEDF00" stroke="black" stroke-width="0.0185983"/>
<path d="M15.297 9.36601C15.2862 9.37498 15.2431 9.37981 15.2317 9.38172C15.2202 9.38323 15.1749 9.38369 15.1558 9.38439C15.1452 9.38512 15.1249 9.38805 15.1144 9.38805C15.0216 9.37748 15.2651 9.37896 15.297 9.36599V9.36601ZM15.0538 9.29423C15.0598 9.28337 15.0903 9.21569 15.1012 9.19646C15.1123 9.17758 15.1375 9.12723 15.1526 9.10628C15.1603 9.09494 15.1906 9.06206 15.1978 9.07678C15.1451 9.12235 15.1035 9.20194 15.0814 9.25544C15.0785 9.26121 15.0612 9.29101 15.0548 9.29881C15.0486 9.30645 15.0511 9.32092 15.0414 9.32209C15.0312 9.32337 15.0383 9.32524 15.0383 9.32524C15.0383 9.32524 15.0471 9.30565 15.0538 9.29421V9.29423ZM15.4036 9.34599C15.4036 9.34599 15.3617 9.33971 15.3357 9.33052C15.3098 9.3218 15.2663 9.3151 15.2292 9.31603C15.1925 9.31651 15.1589 9.32759 15.129 9.33901C15.0992 9.35009 15.0605 9.35103 15.0605 9.35103C15.0605 9.35103 15.0387 9.35445 15.0489 9.34941C15.0586 9.34456 15.0925 9.31813 15.0925 9.31813L15.1144 9.2882C15.1207 9.28645 15.2316 9.14087 15.2195 9.1018C15.2365 9.07304 15.2564 9.02172 15.249 9.01278C15.2454 9.00914 15.1626 9.03906 15.1444 9.05554C15.1234 9.07372 15.1085 9.11159 15.1022 9.13341C15.0961 9.15508 15.0642 9.173 15.0642 9.173C15.0383 9.19161 15.0196 9.25057 15.0108 9.29881C15.0019 9.34643 14.8845 9.37283 14.8845 9.37283C14.8845 9.37283 14.852 9.38497 14.8809 9.39416C14.8858 9.39557 14.8987 9.41736 14.9091 9.4177C14.9234 9.41937 14.9963 9.38817 15.0076 9.39064C15.0323 9.39625 15.0568 9.40295 15.081 9.41072C15.1088 9.42015 15.1317 9.42497 15.1512 9.41779C15.1709 9.41069 15.1991 9.41343 15.2202 9.41755C15.241 9.42204 15.2643 9.42015 15.2777 9.416C15.2921 9.41164 15.3298 9.39064 15.3298 9.39064C15.3298 9.39064 15.3707 9.37295 15.3943 9.36187C15.418 9.35081 15.4036 9.34597 15.4036 9.34597" fill="#009B3A"/>
<path d="M15.4036 9.34599C15.4036 9.34599 15.3617 9.33971 15.3357 9.33052C15.3098 9.3218 15.2663 9.3151 15.2292 9.31603C15.1925 9.31651 15.1589 9.32759 15.129 9.33901C15.0992 9.35009 15.0605 9.35103 15.0605 9.35103C15.0605 9.35103 15.0387 9.35445 15.0489 9.34941C15.0586 9.34456 15.0925 9.31813 15.0925 9.31813L15.1144 9.2882C15.1207 9.28645 15.2316 9.14087 15.2195 9.1018C15.2365 9.07304 15.2564 9.02172 15.249 9.01278C15.2454 9.00914 15.1626 9.03906 15.1444 9.05554C15.1234 9.07372 15.1085 9.11159 15.1022 9.13341C15.0961 9.15508 15.0642 9.173 15.0642 9.173C15.0383 9.19161 15.0196 9.25057 15.0108 9.29881C15.0019 9.34643 14.8845 9.37283 14.8845 9.37283C14.8845 9.37283 14.852 9.38497 14.8809 9.39416C14.8858 9.39557 14.8987 9.41736 14.9091 9.4177C14.9234 9.41937 14.9963 9.38817 15.0076 9.39064C15.0323 9.39625 15.0568 9.40295 15.081 9.41072C15.1088 9.42015 15.1317 9.42497 15.1512 9.41779C15.1709 9.41069 15.1991 9.41343 15.2202 9.41755C15.241 9.42204 15.2643 9.42015 15.2777 9.416C15.2921 9.41164 15.3298 9.39064 15.3298 9.39064C15.3298 9.39064 15.3707 9.37295 15.3943 9.36187C15.418 9.35081 15.4036 9.34597 15.4036 9.34597M15.297 9.36601C15.2862 9.37498 15.2431 9.37981 15.2317 9.38172C15.2202 9.38323 15.1749 9.38369 15.1558 9.38439C15.1452 9.38512 15.1249 9.38805 15.1144 9.38805C15.0216 9.37748 15.2651 9.37896 15.297 9.36599V9.36601ZM15.0538 9.29423C15.0598 9.28337 15.0903 9.21569 15.1012 9.19646C15.1123 9.17758 15.1375 9.12723 15.1526 9.10628C15.1603 9.09494 15.1906 9.06206 15.1978 9.07678C15.1451 9.12235 15.1035 9.20194 15.0814 9.25544C15.0785 9.26121 15.0612 9.29101 15.0548 9.29881C15.0486 9.30645 15.0511 9.32092 15.0414 9.32209C15.0312 9.32337 15.0383 9.32524 15.0383 9.32524C15.0383 9.32524 15.0471 9.30565 15.0538 9.29421V9.29423Z" stroke="black" stroke-width="0.0232942"/>
<path d="M15.0847 9.48773C15.0847 9.48773 14.9231 9.4032 14.9145 9.40119C14.9094 9.40048 14.8412 9.36288 14.81 9.35319C14.7874 9.34589 14.7563 9.34398 14.7451 9.3447C14.7185 9.34657 14.675 9.3583 14.675 9.3583L14.7152 9.37471C14.7152 9.37471 14.7529 9.39321 14.7713 9.40313C14.7976 9.41704 14.7988 9.43399 14.7988 9.43399L14.9451 9.49835L14.9748 9.51968C14.9748 9.51968 15.0018 9.48242 15.0847 9.48773Z" fill="#009B3A"/>
<path d="M15.0847 9.48773C15.0847 9.48773 14.9231 9.4032 14.9145 9.40119C14.9094 9.40048 14.8412 9.36288 14.81 9.35319C14.7874 9.34589 14.7563 9.34398 14.7451 9.3447C14.7185 9.34657 14.675 9.3583 14.675 9.3583L14.7152 9.37471C14.7152 9.37471 14.7529 9.39321 14.7713 9.40313C14.7976 9.41704 14.7988 9.43399 14.7988 9.43399L14.9451 9.49835L14.9748 9.51968C14.9748 9.51968 15.0018 9.48242 15.0847 9.48773" stroke="black" stroke-width="0.0185983"/>
<path d="M15.2473 9.15222C15.2982 9.10689 15.323 9.04245 15.3648 9.00676C15.3716 9.01161 15.3716 9.01971 15.3633 9.03399C15.3554 9.04805 15.3449 9.0529 15.3403 9.06022C15.3318 9.07166 15.3063 9.0928 15.2994 9.1055C15.2933 9.11753 15.2854 9.13435 15.2632 9.14715C15.2412 9.16034 15.2481 9.18131 15.2463 9.19011C15.2445 9.19981 15.2105 9.22415 15.1941 9.25423C15.191 9.2856 15.1896 9.27244 15.1705 9.28359C15.2051 9.23139 15.2233 9.19777 15.2473 9.15219V9.15222ZM15.1331 9.29564C15.1299 9.3025 15.0297 9.35939 15.061 9.35096C15.0921 9.34276 15.1848 9.30933 15.2111 9.29762C15.2432 9.28359 15.2625 9.25411 15.2867 9.23016C15.3113 9.20567 15.3876 9.13278 15.4008 9.10468C15.4137 9.07573 15.4254 9.03549 15.3737 8.94511C15.3737 8.94511 15.3657 8.9624 15.3464 8.9793C15.3274 8.99658 15.299 9.01571 15.299 9.01571L15.2658 9.04705C15.2658 9.04705 15.1487 9.26221 15.1331 9.29566" fill="#009B3A"/>
<path d="M15.1331 9.29564C15.1299 9.3025 15.0297 9.35939 15.061 9.35096C15.0921 9.34276 15.1848 9.30933 15.2111 9.29762C15.2432 9.28359 15.2625 9.25411 15.2867 9.23016C15.3113 9.20567 15.3876 9.13278 15.4008 9.10468C15.4137 9.07573 15.4254 9.03549 15.3737 8.94511C15.3737 8.94511 15.3657 8.9624 15.3464 8.9793C15.3274 8.99658 15.299 9.01571 15.299 9.01571L15.2658 9.04705C15.2658 9.04705 15.1487 9.26221 15.1331 9.29566M15.2473 9.15222C15.2982 9.10689 15.323 9.04245 15.3648 9.00676C15.3716 9.01161 15.3716 9.01971 15.3633 9.03399C15.3554 9.04805 15.3449 9.0529 15.3403 9.06022C15.3318 9.07166 15.3063 9.0928 15.2994 9.1055C15.2933 9.11753 15.2854 9.13435 15.2632 9.14715C15.2412 9.16034 15.2481 9.18131 15.2463 9.19011C15.2445 9.19981 15.2105 9.22415 15.1941 9.25423C15.191 9.2856 15.1896 9.27244 15.1705 9.28359C15.2051 9.23139 15.2233 9.19777 15.2473 9.15219V9.15222Z" stroke="black" stroke-width="0.02453"/>
<path d="M15.5402 9.21977C15.5402 9.21977 15.4761 9.21402 15.4705 9.21402C15.4644 9.21402 15.4293 9.20917 15.3782 9.20917C15.3276 9.20917 15.3086 9.22673 15.2953 9.24086C15.2809 9.25669 15.241 9.29322 15.241 9.29322L15.2625 9.29133C15.3138 9.25138 15.3537 9.26602 15.3697 9.26486C15.3863 9.26428 15.4063 9.26593 15.4577 9.24774C15.5098 9.22947 15.5067 9.24658 15.501 9.24833C15.4761 9.25729 15.45 9.26255 15.4236 9.26394C15.3849 9.26607 15.351 9.27356 15.3358 9.27356C15.3204 9.27356 15.2075 9.30447 15.2075 9.30447C15.2075 9.30447 15.3297 9.31162 15.3429 9.31599C15.356 9.32132 15.3765 9.31882 15.3935 9.31068C15.4403 9.2891 15.4615 9.28498 15.4807 9.28062C15.5001 9.27686 15.5231 9.26377 15.5231 9.26377C15.5231 9.26377 15.5355 9.25596 15.5469 9.23526C15.5586 9.21402 15.5402 9.21977 15.5402 9.21977H15.5402ZM15.6002 8.88498C15.6079 8.86585 15.6272 8.82093 15.6476 8.80326C15.6601 8.7924 15.6815 8.78733 15.693 8.78251C15.6978 8.78086 15.7329 8.77916 15.6891 8.79121C15.6709 8.79606 15.6463 8.8068 15.6354 8.8251C15.6201 8.86762 15.6067 8.90469 15.5782 8.93187C15.5573 8.95381 15.5441 8.98236 15.5441 8.98236L15.5217 8.99012C15.5628 8.96498 15.5806 8.91834 15.6002 8.88498ZM15.7988 8.86103C15.7754 8.86884 15.7672 8.87528 15.7672 8.87528C15.7148 8.89099 15.6934 8.92387 15.6705 8.95063C15.6588 8.96464 15.6424 8.97511 15.5872 8.9988C15.5367 9.0205 15.4977 9.05402 15.4967 9.05402C15.4967 9.05402 15.4807 9.0573 15.4838 9.06508C15.485 9.06876 15.4986 9.06581 15.4986 9.06581C15.4986 9.06581 15.6026 9.05097 15.6459 9.02459C15.6736 9.00724 15.6893 8.9946 15.7155 8.95405C15.7273 8.93613 15.7405 8.90241 15.7411 8.92411C15.7431 8.98164 15.6537 9.03742 15.6148 9.05463C15.594 9.06348 15.5662 9.06714 15.5299 9.07313C15.494 9.07974 15.4721 9.07776 15.4747 9.06985C15.4784 9.05841 15.4826 9.05604 15.4921 9.04474C15.5092 9.02435 15.5505 9.01713 15.5809 9.00285C15.6169 8.98673 15.651 8.96299 15.6681 8.94273C15.6856 8.92224 15.6916 8.91468 15.6964 8.89737C15.7097 8.85206 15.7104 8.82697 15.7229 8.8108C15.7668 8.75669 15.7732 8.73924 15.7754 8.71509C15.7759 8.70951 15.7526 8.72791 15.7405 8.73463C15.7168 8.74864 15.7081 8.74864 15.6596 8.7613C15.6104 8.77356 15.6115 8.80527 15.6038 8.82025C15.6016 8.82624 15.5817 8.85114 15.5721 8.85574C15.5626 8.86057 15.5392 8.89439 15.5306 8.91422C15.5242 8.92869 15.5127 8.93909 15.5036 8.93793C15.494 8.93613 15.522 8.83133 15.5282 8.814C15.5348 8.79679 15.5362 8.76316 15.5362 8.75184C15.5362 8.74101 15.5365 8.71247 15.5175 8.70927C15.4986 8.70607 15.4978 8.67996 15.4978 8.67996C15.4523 8.71936 15.4777 8.78876 15.4826 8.8299C15.4874 8.87068 15.4732 8.94614 15.4732 8.94614C15.5171 8.96491 15.4826 9.01829 15.4689 9.03555C15.4546 9.05308 15.4273 9.05628 15.4151 9.07174C15.4022 9.08765 15.3101 9.21582 15.3101 9.21582L15.4246 9.18338C15.4246 9.18338 15.4353 9.18527 15.4182 9.17233C15.4009 9.15991 15.4238 9.11182 15.4385 9.10004C15.4666 9.07797 15.5047 9.09402 15.5047 9.09402C15.5047 9.09402 15.5578 9.10217 15.6229 9.07633C15.6773 9.05487 15.7007 9.02008 15.7264 8.9939C15.7405 8.97967 15.7661 8.93235 15.7823 8.90433C15.792 8.88813 15.8095 8.85737 15.7988 8.86103" fill="#009B3A"/>
<path d="M15.7988 8.86103C15.7754 8.86884 15.7672 8.87528 15.7672 8.87528C15.7148 8.89099 15.6934 8.92387 15.6705 8.95063C15.6588 8.96464 15.6424 8.97511 15.5872 8.9988C15.5367 9.0205 15.4977 9.05402 15.4967 9.05402C15.4967 9.05402 15.4807 9.0573 15.4838 9.06508C15.485 9.06876 15.4986 9.06581 15.4986 9.06581C15.4986 9.06581 15.6026 9.05097 15.6459 9.02459C15.6736 9.00724 15.6893 8.9946 15.7155 8.95405C15.7273 8.93613 15.7405 8.90241 15.7411 8.92411C15.7431 8.98164 15.6537 9.03742 15.6148 9.05463C15.594 9.06348 15.5662 9.06714 15.5299 9.07313C15.494 9.07974 15.4721 9.07776 15.4747 9.06985C15.4784 9.05841 15.4826 9.05604 15.4921 9.04474C15.5092 9.02435 15.5505 9.01713 15.5809 9.00285C15.6169 8.98673 15.651 8.96299 15.6681 8.94273C15.6856 8.92224 15.6916 8.91468 15.6964 8.89737C15.7097 8.85206 15.7104 8.82697 15.7229 8.8108C15.7668 8.75669 15.7732 8.73924 15.7754 8.71509C15.7759 8.70951 15.7526 8.72791 15.7405 8.73463C15.7168 8.74864 15.7081 8.74864 15.6596 8.7613C15.6104 8.77356 15.6115 8.80527 15.6038 8.82025C15.6016 8.82624 15.5817 8.85114 15.5721 8.85574C15.5626 8.86057 15.5392 8.89439 15.5306 8.91422C15.5242 8.92869 15.5127 8.93909 15.5036 8.93793C15.494 8.93613 15.522 8.83133 15.5282 8.814C15.5348 8.79679 15.5362 8.76316 15.5362 8.75184C15.5362 8.74101 15.5365 8.71247 15.5175 8.70927C15.4986 8.70607 15.4978 8.67996 15.4978 8.67996C15.4523 8.71936 15.4777 8.78876 15.4826 8.8299C15.4874 8.87068 15.4732 8.94614 15.4732 8.94614C15.5171 8.96491 15.4826 9.01829 15.4689 9.03555C15.4546 9.05308 15.4273 9.05628 15.4151 9.07174C15.4022 9.08765 15.3101 9.21582 15.3101 9.21582L15.4246 9.18338C15.4246 9.18338 15.4353 9.18527 15.4182 9.17233C15.4009 9.15991 15.4238 9.11182 15.4385 9.10004C15.4666 9.07797 15.5047 9.09402 15.5047 9.09402C15.5047 9.09402 15.5578 9.10217 15.6229 9.07633C15.6773 9.05487 15.7007 9.02008 15.7264 8.9939C15.7405 8.97967 15.7661 8.93235 15.7823 8.90433C15.792 8.88813 15.8095 8.85737 15.7988 8.86103M15.5402 9.21977C15.5402 9.21977 15.4761 9.21402 15.4705 9.21402C15.4644 9.21402 15.4293 9.20917 15.3782 9.20917C15.3276 9.20917 15.3086 9.22673 15.2953 9.24086C15.2809 9.25669 15.241 9.29322 15.241 9.29322L15.2625 9.29133C15.3138 9.25138 15.3537 9.26602 15.3697 9.26486C15.3863 9.26428 15.4063 9.26593 15.4577 9.24774C15.5098 9.22947 15.5067 9.24658 15.501 9.24833C15.4761 9.25729 15.45 9.26255 15.4236 9.26394C15.3849 9.26607 15.351 9.27356 15.3358 9.27356C15.3204 9.27356 15.2075 9.30447 15.2075 9.30447C15.2075 9.30447 15.3297 9.31162 15.3429 9.31599C15.356 9.32132 15.3765 9.31882 15.3935 9.31068C15.4403 9.2891 15.4615 9.28498 15.4807 9.28062C15.5001 9.27686 15.5231 9.26377 15.5231 9.26377C15.5231 9.26377 15.5355 9.25596 15.5469 9.23526C15.5586 9.21402 15.5402 9.21977 15.5402 9.21977H15.5402ZM15.6002 8.88498C15.6079 8.86585 15.6272 8.82093 15.6476 8.80326C15.6601 8.7924 15.6815 8.78733 15.693 8.78251C15.6978 8.78086 15.7329 8.77916 15.6891 8.79121C15.6709 8.79606 15.6463 8.8068 15.6354 8.8251C15.6201 8.86762 15.6067 8.90469 15.5782 8.93187C15.5573 8.95381 15.5441 8.98236 15.5441 8.98236L15.5217 8.99012C15.5628 8.96498 15.5806 8.91834 15.6002 8.88498V8.88498Z" stroke="black" stroke-width="0.0232942"/>
<path d="M15.4741 9.16867C15.4828 9.16513 15.4841 9.16356 15.5001 9.14608C15.5159 9.12862 15.502 9.09914 15.4776 9.10033C15.4657 9.10113 15.453 9.09837 15.4295 9.12991C15.4069 9.16147 15.4404 9.17301 15.4531 9.17432C15.4585 9.17461 15.4657 9.17223 15.4741 9.16867Z" fill="#009B3A"/>
<path d="M15.4741 9.16867C15.4828 9.16513 15.4841 9.16356 15.5001 9.14608C15.5159 9.12862 15.502 9.09914 15.4776 9.10033C15.4657 9.10113 15.453 9.09837 15.4295 9.12991C15.4069 9.16147 15.4404 9.17301 15.4531 9.17432C15.4585 9.17461 15.4657 9.17223 15.4741 9.16867" stroke="black" stroke-width="0.0259511"/>
<path d="M15.415 8.96937C15.3999 8.99475 15.3918 9.02389 15.4037 9.03288C15.4063 9.03436 15.4169 9.04365 15.4258 9.04365C15.4346 9.04365 15.4595 9.0317 15.4737 9.00978C15.4879 8.98854 15.4996 8.96522 15.4705 8.95073C15.4441 8.93766 15.426 8.94988 15.415 8.96934" fill="#009B3A"/>
<path d="M15.415 8.96937C15.3999 8.99475 15.3918 9.02389 15.4037 9.03288C15.4063 9.03436 15.4169 9.04365 15.4258 9.04365C15.4346 9.04365 15.4595 9.0317 15.4737 9.00978C15.4879 8.98854 15.4996 8.96522 15.4705 8.95073C15.4441 8.93766 15.426 8.94988 15.415 8.96934" stroke="black" stroke-width="0.0265072"/>
<path d="M15.5017 8.65942C15.5017 8.65942 15.5041 8.65551 15.4941 8.64516C15.4783 8.62897 15.4585 8.60014 15.4585 8.60014C15.427 8.61736 15.4166 8.65214 15.4166 8.66596C15.4166 8.68031 15.4219 8.71156 15.417 8.74342C15.4154 8.75425 15.4136 8.76664 15.398 8.80603C15.3821 8.84492 15.4003 8.88065 15.4039 8.89326C15.4066 8.90577 15.4196 8.94465 15.4196 8.94465C15.4196 8.94465 15.4319 8.93675 15.4361 8.93583C15.4409 8.93452 15.4577 8.93525 15.4577 8.93525C15.4577 8.93525 15.4766 8.90097 15.4773 8.88191C15.4777 8.86785 15.4754 8.84405 15.4688 8.80749C15.4595 8.7543 15.4601 8.73912 15.4664 8.70938C15.4727 8.6792 15.5017 8.65937 15.5017 8.65937" fill="#009B3A"/>
<path d="M15.5017 8.65942C15.5017 8.65942 15.5041 8.65551 15.4941 8.64516C15.4783 8.62897 15.4585 8.60014 15.4585 8.60014C15.427 8.61736 15.4166 8.65214 15.4166 8.66596C15.4166 8.68031 15.4219 8.71156 15.417 8.74342C15.4154 8.75425 15.4136 8.76664 15.398 8.80603C15.3821 8.84492 15.4003 8.88065 15.4039 8.89326C15.4066 8.90577 15.4196 8.94465 15.4196 8.94465C15.4196 8.94465 15.4319 8.93675 15.4361 8.93583C15.4409 8.93452 15.4577 8.93525 15.4577 8.93525C15.4577 8.93525 15.4766 8.90097 15.4773 8.88191C15.4777 8.86785 15.4754 8.84405 15.4688 8.80749C15.4595 8.7543 15.4601 8.73912 15.4664 8.70938C15.4727 8.6792 15.5017 8.65937 15.5017 8.65937" stroke="black" stroke-width="0.0232942"/>
<path d="M15.5484 8.71262C15.5484 8.71262 15.5663 8.70835 15.5753 8.69216C15.5866 8.67262 15.5836 8.65187 15.5836 8.65187C15.5559 8.59822 15.5188 8.64151 15.5188 8.64151C15.4855 8.70964 15.5484 8.71264 15.5484 8.71264" fill="#009B3A"/>
<path d="M15.5484 8.71262C15.5484 8.71262 15.5663 8.70835 15.5753 8.69216C15.5866 8.67262 15.5836 8.65187 15.5836 8.65187C15.5559 8.59822 15.5188 8.64151 15.5188 8.64151C15.4855 8.70964 15.5484 8.71264 15.5484 8.71264" stroke="black" stroke-width="0.0255804"/>
<path d="M15.6429 8.61435C15.6016 8.61649 15.5812 8.69072 15.5812 8.69072C15.5812 8.69072 15.5745 8.70907 15.5525 8.72325C15.5291 8.73772 15.5429 8.75852 15.5429 8.79549C15.5429 8.83244 15.5172 8.8978 15.5172 8.8978L15.5076 8.91995C15.5076 8.91995 15.5085 8.93658 15.5235 8.90638C15.5491 8.85557 15.5772 8.8679 15.5878 8.81321C15.5945 8.77253 15.6618 8.75959 15.6618 8.75959L15.6429 8.75605C15.5729 8.72325 15.6469 8.64146 15.6589 8.62696C15.6716 8.61251 15.6837 8.61251 15.6429 8.61435Z" fill="#009B3A"/>
<path d="M15.6429 8.61435C15.6016 8.61649 15.5812 8.69072 15.5812 8.69072C15.5812 8.69072 15.5745 8.70907 15.5525 8.72325C15.5291 8.73772 15.5429 8.75852 15.5429 8.79549C15.5429 8.83244 15.5172 8.8978 15.5172 8.8978L15.5076 8.91995C15.5076 8.91995 15.5085 8.93658 15.5235 8.90638C15.5491 8.85557 15.5772 8.8679 15.5878 8.81321C15.5945 8.77253 15.6618 8.75959 15.6618 8.75959L15.6429 8.75605C15.5729 8.72325 15.6469 8.64146 15.6589 8.62696C15.6716 8.61251 15.6837 8.61251 15.6429 8.61435" stroke="black" stroke-width="0.0303999"/>
<path d="M15.6309 8.70235C15.612 8.7429 15.6658 8.74487 15.6783 8.73779C15.6833 8.73488 15.6946 8.72138 15.6946 8.72138C15.7165 8.69001 15.6965 8.66877 15.6851 8.66574C15.6742 8.6621 15.6508 8.65932 15.6309 8.70235Z" fill="#009B3A"/>
<path d="M15.6309 8.70235C15.612 8.7429 15.6658 8.74487 15.6783 8.73779C15.6833 8.73488 15.6946 8.72138 15.6946 8.72138C15.7165 8.69001 15.6965 8.66877 15.6851 8.66574C15.6742 8.6621 15.6508 8.65932 15.6309 8.70235" stroke="black" stroke-width="0.0258894"/>
<path d="M15.5287 8.54477C15.5428 8.57107 15.5822 8.64426 15.5915 8.6397C15.5973 8.63686 15.5927 8.62188 15.5927 8.62188C15.5927 8.62188 15.5915 8.60208 15.5851 8.57812C15.5788 8.55398 15.5803 8.52307 15.5678 8.50326C15.5555 8.48348 15.5262 8.45999 15.5147 8.42874C15.5033 8.3974 15.5122 8.33807 15.5132 8.33078C15.5143 8.32394 15.5178 8.32843 15.5117 8.32135C15.5055 8.31366 15.4557 8.28714 15.4557 8.28714C15.4557 8.28714 15.4586 8.30649 15.4574 8.34152C15.4569 8.35 15.4545 8.35989 15.4532 8.37463C15.4521 8.38867 15.4605 8.40634 15.4809 8.44668C15.5047 8.49337 15.5161 8.52203 15.5287 8.54477ZM15.8277 8.19657C15.8277 8.19657 15.8134 8.22052 15.8082 8.22581C15.8029 8.23114 15.7217 8.30093 15.717 8.30387C15.7131 8.30695 15.6707 8.3205 15.6321 8.42484C15.5934 8.52884 15.6101 8.6261 15.6101 8.6261L15.6289 8.62377L15.6321 8.61359C15.6321 8.61359 15.6384 8.57907 15.6432 8.55289C15.6486 8.52707 15.6776 8.49097 15.6968 8.46433C15.7151 8.43827 15.7299 8.40081 15.7299 8.40081C15.7517 8.35693 15.7621 8.31771 15.7837 8.28712C15.7846 8.32355 15.6461 8.54753 15.6312 8.62375L15.6723 8.61749C15.705 8.58755 15.7479 8.52469 15.7769 8.48416C15.8061 8.44348 15.8185 8.37992 15.8238 8.35175C15.8289 8.32392 15.8278 8.1966 15.8278 8.1966" fill="#009B3A"/>
<path d="M15.8277 8.19657C15.8277 8.19657 15.8134 8.22052 15.8082 8.22581C15.8029 8.23114 15.7217 8.30093 15.717 8.30387C15.7131 8.30695 15.6707 8.3205 15.6321 8.42484C15.5934 8.52884 15.6101 8.6261 15.6101 8.6261L15.6289 8.62377L15.6321 8.61359C15.6321 8.61359 15.6384 8.57907 15.6432 8.55289C15.6486 8.52707 15.6776 8.49097 15.6968 8.46433C15.7151 8.43827 15.7299 8.40081 15.7299 8.40081C15.7517 8.35693 15.7621 8.31771 15.7837 8.28712C15.7846 8.32355 15.6461 8.54753 15.6312 8.62375L15.6723 8.61749C15.705 8.58755 15.7479 8.52469 15.7769 8.48416C15.8061 8.44348 15.8185 8.37992 15.8238 8.35175C15.8289 8.32392 15.8278 8.1966 15.8278 8.1966M15.5287 8.54477C15.5428 8.57107 15.5822 8.64426 15.5915 8.6397C15.5973 8.63686 15.5927 8.62188 15.5927 8.62188C15.5927 8.62188 15.5915 8.60208 15.5851 8.57812C15.5788 8.55398 15.5803 8.52307 15.5678 8.50326C15.5555 8.48348 15.5262 8.45999 15.5147 8.42874C15.5033 8.3974 15.5122 8.33807 15.5132 8.33078C15.5143 8.32394 15.5178 8.32843 15.5117 8.32135C15.5055 8.31366 15.4557 8.28714 15.4557 8.28714C15.4557 8.28714 15.4586 8.30649 15.4574 8.34152C15.4569 8.35 15.4545 8.35989 15.4532 8.37463C15.4521 8.38867 15.4605 8.40634 15.4809 8.44668C15.5047 8.49337 15.5161 8.52203 15.5287 8.54477V8.54477Z" stroke="black" stroke-width="0.0232942"/>
<path d="M15.5518 8.21964C15.5309 8.2003 15.5146 8.1945 15.5146 8.1945C15.5146 8.1945 15.5196 8.23247 15.5196 8.2556C15.5196 8.2788 15.5217 8.31773 15.5205 8.3385C15.5196 8.35921 15.5093 8.39354 15.524 8.42714C15.5391 8.46027 15.5561 8.47715 15.5681 8.498C15.579 8.51841 15.5991 8.62447 15.5991 8.62447C15.5991 8.62447 15.5917 8.48105 15.598 8.44047C15.6039 8.40061 15.6058 8.33848 15.5969 8.30735C15.5876 8.27608 15.5722 8.23945 15.5518 8.21964ZM15.6474 8.07962C15.6537 8.06735 15.6685 8.042 15.6746 8.00343C15.6769 7.98706 15.6784 7.96052 15.6778 7.94214C15.6774 7.92985 15.6725 7.90854 15.6778 7.90711C15.6826 7.90595 15.6786 7.91375 15.6813 7.93194C15.6826 7.93841 15.6782 7.95637 15.6773 7.97935C15.6762 7.99773 15.6755 8.0131 15.6673 8.03797C15.6602 8.05989 15.6666 8.08423 15.6623 8.09106C15.6575 8.098 15.6449 8.1243 15.6449 8.1243C15.6449 8.1243 15.6372 8.14554 15.6385 8.16486C15.6392 8.18464 15.6404 8.20602 15.6404 8.20602C15.6404 8.20602 15.6496 8.18905 15.67 8.18621C15.67 8.18621 15.6746 8.15305 15.6746 8.1427C15.6746 8.1323 15.6879 8.0644 15.6947 8.04364C15.704 8.01324 15.7105 7.9603 15.6958 7.89884C15.6917 7.88224 15.6888 7.83024 15.6888 7.83024C15.6888 7.83024 15.6692 7.84592 15.6575 7.90522C15.6539 7.92326 15.6616 7.9716 15.6586 8.02314C15.6574 8.05155 15.6301 8.16672 15.6265 8.17392" fill="#009B3A"/>
<path d="M15.6474 8.07962C15.6537 8.06735 15.6685 8.042 15.6746 8.00343C15.6769 7.98706 15.6784 7.96052 15.6778 7.94214C15.6774 7.92985 15.6725 7.90854 15.6778 7.90711C15.6826 7.90595 15.6786 7.91375 15.6813 7.93194C15.6826 7.93841 15.6782 7.95637 15.6773 7.97935C15.6762 7.99773 15.6755 8.0131 15.6673 8.03797C15.6602 8.05989 15.6666 8.08423 15.6623 8.09106C15.6575 8.098 15.6449 8.1243 15.6449 8.1243C15.6449 8.1243 15.6372 8.14554 15.6385 8.16486C15.6392 8.18464 15.6404 8.20602 15.6404 8.20602C15.6404 8.20602 15.6496 8.18905 15.67 8.18621C15.67 8.18621 15.6746 8.15305 15.6746 8.1427C15.6746 8.1323 15.6879 8.0644 15.6947 8.04364C15.704 8.01324 15.7105 7.9603 15.6958 7.89884C15.6917 7.88224 15.6888 7.83024 15.6888 7.83024C15.6888 7.83024 15.6692 7.84592 15.6575 7.90522C15.6539 7.92326 15.6616 7.9716 15.6586 8.02314C15.6574 8.05155 15.6301 8.16672 15.6265 8.17392M15.5518 8.21964C15.5309 8.2003 15.5146 8.1945 15.5146 8.1945C15.5146 8.1945 15.5196 8.23247 15.5196 8.2556C15.5196 8.2788 15.5217 8.31773 15.5205 8.3385C15.5196 8.35921 15.5093 8.39354 15.524 8.42714C15.5391 8.46027 15.5561 8.47715 15.5681 8.498C15.579 8.51841 15.5991 8.62447 15.5991 8.62447C15.5991 8.62447 15.5917 8.48105 15.598 8.44047C15.6039 8.40061 15.6058 8.33848 15.5969 8.30735C15.5876 8.27608 15.5722 8.23945 15.5518 8.21964V8.21964Z" stroke="black" stroke-width="0.0232942"/>
<path d="M15.6476 8.07977C15.6464 8.08187 15.646 8.08274 15.646 8.08274C15.646 8.08274 15.647 8.08187 15.6476 8.07977Z" fill="#009B3A" stroke="black" stroke-width="0.0232942"/>
<path d="M15.57 7.78088C15.5805 7.78088 15.5805 7.7922 15.5783 7.80115C15.5767 7.81036 15.5769 7.82745 15.5769 7.83096C15.5769 7.83499 15.5813 7.8594 15.5848 7.87213C15.5885 7.88522 15.5951 7.88934 15.5922 7.91562C15.5903 7.93215 15.5733 7.95157 15.5793 7.97964C15.5825 7.99441 15.593 8.00985 15.5983 8.02255C15.6026 8.0314 15.6003 8.05302 15.6015 8.0707C15.6019 8.08791 15.6114 8.09955 15.6114 8.09955C15.6114 8.09955 15.5997 8.12151 15.5958 8.09404C15.5915 8.06253 15.5901 8.04852 15.584 8.03426C15.5742 8.01089 15.5651 7.96888 15.5804 7.93649C15.5831 7.93024 15.5851 7.9186 15.5851 7.90478C15.5851 7.89075 15.5765 7.86677 15.5748 7.85193C15.5733 7.84013 15.5743 7.81525 15.5743 7.80626L15.57 7.78088ZM15.5194 7.93814C15.5219 7.95593 15.5276 7.96607 15.5477 8.00476C15.5538 8.01751 15.5679 8.05004 15.57 8.06042C15.5725 8.07079 15.5746 8.0833 15.5746 8.08648C15.5746 8.0899 15.5769 8.11431 15.5769 8.11431V8.12444C15.5769 8.12444 15.5213 8.09203 15.497 8.0747C15.4727 8.05724 15.4452 8.03329 15.4276 8.01882C15.4076 8.00241 15.3601 7.94604 15.3595 7.9009L15.3377 7.8811C15.3377 7.8811 15.321 7.98144 15.3996 8.04638C15.4223 8.065 15.4471 8.08553 15.4999 8.10946C15.5529 8.1339 15.5459 8.15574 15.568 8.20267C15.5898 8.24983 15.6034 8.27695 15.6061 8.29029C15.608 8.30454 15.6001 8.505 15.6001 8.505L15.602 8.52318C15.602 8.52318 15.6504 8.33749 15.6737 8.31676C15.6737 8.31676 15.6275 8.30966 15.6312 8.23705L15.6231 8.18917C15.6231 8.18917 15.6138 8.13162 15.6312 8.09591C15.6312 8.09591 15.6517 8.03045 15.6447 7.97387C15.6403 7.94003 15.6388 7.9299 15.6346 7.89746C15.6283 7.84699 15.6081 7.77484 15.6059 7.76612C15.599 7.74078 15.5966 7.73688 15.5885 7.71685C15.5861 7.70978 15.5816 7.68641 15.5742 7.68607C15.5699 7.68582 15.5633 7.71613 15.5633 7.71613C15.5633 7.71613 15.5536 7.74915 15.5516 7.75809C15.5453 7.78476 15.5306 7.80713 15.5238 7.86704C15.5226 7.8779 15.5214 7.90713 15.5201 7.91104C15.5194 7.91433 15.518 7.93155 15.5194 7.93814Z" fill="#009B3A"/>
<path d="M15.5194 7.93814C15.5219 7.95593 15.5276 7.96607 15.5477 8.00476C15.5538 8.01751 15.5679 8.05004 15.57 8.06042C15.5725 8.07079 15.5746 8.0833 15.5746 8.08648C15.5746 8.0899 15.5769 8.11431 15.5769 8.11431V8.12444C15.5769 8.12444 15.5213 8.09203 15.497 8.0747C15.4727 8.05724 15.4452 8.03329 15.4276 8.01882C15.4076 8.00241 15.3601 7.94604 15.3595 7.9009L15.3377 7.8811C15.3377 7.8811 15.321 7.98144 15.3996 8.04638C15.4223 8.065 15.4471 8.08553 15.4999 8.10946C15.5529 8.1339 15.5459 8.15574 15.568 8.20267C15.5898 8.24983 15.6034 8.27695 15.6061 8.29029C15.608 8.30454 15.6001 8.505 15.6001 8.505L15.602 8.52318C15.602 8.52318 15.6504 8.33749 15.6737 8.31676C15.6737 8.31676 15.6275 8.30966 15.6312 8.23705L15.6231 8.18917C15.6231 8.18917 15.6138 8.13162 15.6312 8.09591C15.6312 8.09591 15.6517 8.03045 15.6447 7.97387C15.6403 7.94003 15.6388 7.9299 15.6346 7.89746C15.6283 7.84699 15.6081 7.77484 15.6059 7.76612C15.599 7.74078 15.5966 7.73688 15.5885 7.71685C15.5861 7.70978 15.5816 7.68641 15.5742 7.68607C15.5699 7.68582 15.5633 7.71613 15.5633 7.71613C15.5633 7.71613 15.5536 7.74915 15.5516 7.75809C15.5453 7.78476 15.5306 7.80713 15.5238 7.86704C15.5226 7.8779 15.5214 7.90713 15.5201 7.91104C15.5194 7.91433 15.518 7.93155 15.5194 7.93814M15.57 7.78088C15.5805 7.78088 15.5805 7.7922 15.5783 7.80115C15.5767 7.81036 15.5769 7.82745 15.5769 7.83096C15.5769 7.83499 15.5813 7.8594 15.5848 7.87213C15.5885 7.88522 15.5951 7.88934 15.5922 7.91562C15.5903 7.93215 15.5733 7.95157 15.5793 7.97964C15.5825 7.99441 15.593 8.00985 15.5983 8.02255C15.6026 8.0314 15.6003 8.05302 15.6015 8.0707C15.6019 8.08791 15.6114 8.09955 15.6114 8.09955C15.6114 8.09955 15.5997 8.12151 15.5958 8.09404C15.5915 8.06253 15.5901 8.04852 15.584 8.03426C15.5742 8.01089 15.5651 7.96888 15.5804 7.93649C15.5831 7.93024 15.5851 7.9186 15.5851 7.90478C15.5851 7.89075 15.5765 7.86677 15.5748 7.85193C15.5733 7.84013 15.5743 7.81525 15.5743 7.80626L15.57 7.78088Z" stroke="black" stroke-width="0.0232942"/>
<path d="M15.5607 8.19142C15.5607 8.19142 15.5526 8.17348 15.5444 8.16429C15.5279 8.14485 15.5057 8.12834 15.4425 8.09746C15.3795 8.06609 15.3629 8.01455 15.3308 7.99333C15.3161 7.98318 15.2876 7.97835 15.2876 7.97835C15.2876 7.97835 15.3156 8.01692 15.3223 8.03023C15.3308 8.0472 15.3329 8.05877 15.3675 8.09108C15.402 8.12352 15.444 8.13484 15.4711 8.14286C15.5094 8.15474 15.5607 8.19144 15.5607 8.19144V8.19142ZM15.3623 7.89346C15.364 7.89855 15.3802 7.95397 15.4143 7.99702C15.4664 8.06291 15.5668 8.10999 15.5668 8.10999C15.5574 8.06897 15.5411 8.02155 15.5281 8.00056C15.4825 7.92686 15.3619 7.89074 15.3619 7.89074C15.3619 7.89074 15.3598 7.88793 15.3623 7.89346ZM15.5062 7.92454C15.5332 7.86538 15.4525 7.8089 15.4298 7.76769C15.4382 7.761 15.4482 7.77855 15.4574 7.79023C15.4707 7.80778 15.5078 7.8586 15.5078 7.8586L15.5194 7.80449L15.4233 7.71712C15.4222 7.72982 15.3925 7.74027 15.3925 7.74027C15.3781 7.82114 15.5062 7.92451 15.5062 7.92451" fill="#009B3A"/>
<path d="M15.5062 7.92454C15.5332 7.86538 15.4525 7.8089 15.4298 7.76769C15.4382 7.761 15.4482 7.77855 15.4574 7.79023C15.4707 7.80778 15.5078 7.8586 15.5078 7.8586L15.5194 7.80449L15.4233 7.71712C15.4222 7.72982 15.3925 7.74027 15.3925 7.74027C15.3781 7.82114 15.5062 7.92451 15.5062 7.92451M15.5607 8.19142C15.5607 8.19142 15.5526 8.17348 15.5444 8.16429C15.5279 8.14485 15.5057 8.12834 15.4425 8.09746C15.3795 8.06609 15.3629 8.01455 15.3308 7.99333C15.3161 7.98318 15.2876 7.97835 15.2876 7.97835C15.2876 7.97835 15.3156 8.01692 15.3223 8.03023C15.3308 8.0472 15.3329 8.05877 15.3675 8.09108C15.402 8.12352 15.444 8.13484 15.4711 8.14286C15.5094 8.15474 15.5607 8.19144 15.5607 8.19144V8.19142ZM15.3623 7.89346C15.364 7.89855 15.3802 7.95397 15.4143 7.99702C15.4664 8.06291 15.5668 8.10999 15.5668 8.10999C15.5574 8.06897 15.5411 8.02155 15.5281 8.00056C15.4825 7.92686 15.3619 7.89074 15.3619 7.89074C15.3619 7.89074 15.3598 7.88793 15.3623 7.89346V7.89346Z" stroke="black" stroke-width="0.0232942"/>
<path d="M15.339 7.78748C15.3158 7.79786 15.3076 7.79786 15.3076 7.79786L15.3205 7.83214L15.3281 7.84145C15.3281 7.84145 15.3582 7.88508 15.3758 7.89051C15.3831 7.89323 15.4106 7.89803 15.4382 7.90983C15.4728 7.92457 15.5294 7.97408 15.5294 7.97408C15.5294 7.97408 15.4353 7.8679 15.3992 7.78828L15.387 7.74242L15.3529 7.74467C15.3529 7.74467 15.3623 7.77689 15.339 7.78751" fill="#009B3A"/>
<path d="M15.339 7.78748C15.3158 7.79786 15.3076 7.79786 15.3076 7.79786L15.3205 7.83214L15.3281 7.84145C15.3281 7.84145 15.3582 7.88508 15.3758 7.89051C15.3831 7.89323 15.4106 7.89803 15.4382 7.90983C15.4728 7.92457 15.5294 7.97408 15.5294 7.97408C15.5294 7.97408 15.4353 7.8679 15.3992 7.78828L15.387 7.74242L15.3529 7.74467C15.3529 7.74467 15.3623 7.77689 15.339 7.78751" stroke="black" stroke-width="0.0232942"/>
<path d="M14.9867 7.71951C15.0025 7.73375 15.0197 7.74646 15.0379 7.75747C15.0587 7.76998 15.1186 7.8052 15.1634 7.81371C15.1738 7.81536 15.2301 7.82244 15.2301 7.82244C15.2323 7.79778 15.2591 7.79565 15.2591 7.79565L15.1794 7.78692C15.1151 7.78217 15.0662 7.75531 15.0282 7.71231C15.0792 7.74326 15.1526 7.79201 15.2121 7.7894C15.4563 7.7654 15.1385 7.75934 15.1109 7.74166C15.0817 7.72363 15.0568 7.69366 15.0568 7.69366L14.9852 7.69046C14.9852 7.69046 14.95 7.68826 14.9867 7.71951Z" fill="#009B3A"/>
<path d="M14.9867 7.71951C15.0025 7.73375 15.0197 7.74646 15.0379 7.75747C15.0587 7.76998 15.1186 7.8052 15.1634 7.81371C15.1738 7.81536 15.2301 7.82244 15.2301 7.82244C15.2323 7.79778 15.2591 7.79565 15.2591 7.79565L15.1794 7.78692C15.1151 7.78217 15.0662 7.75531 15.0282 7.71231C15.0792 7.74326 15.1526 7.79201 15.2121 7.7894C15.4563 7.7654 15.1385 7.75934 15.1109 7.74166C15.0817 7.72363 15.0568 7.69366 15.0568 7.69366L14.9852 7.69046C14.9852 7.69046 14.95 7.68826 14.9867 7.71951" stroke="black" stroke-width="0.0232942"/>
<path d="M15.2741 7.85848C15.2899 7.85731 15.301 7.85435 15.3046 7.83705C15.3078 7.8177 15.3004 7.80366 15.2771 7.79857C15.2642 7.79537 15.2415 7.7947 15.2322 7.8177C15.2221 7.84126 15.2588 7.85639 15.2588 7.85639C15.2588 7.85639 15.2658 7.85945 15.2741 7.85848ZM15.3015 7.71845C15.2809 7.71845 15.2738 7.73533 15.2783 7.7682C15.2837 7.80136 15.3344 7.78686 15.3344 7.78686L15.3438 7.78202C15.3438 7.78202 15.3507 7.77668 15.3469 7.75031C15.3433 7.7233 15.3223 7.71845 15.3015 7.71845H15.3015ZM15.3846 7.74173H15.3838C15.3834 7.74197 15.3846 7.74173 15.3846 7.74173Z" fill="#009B3A" stroke="black" stroke-width="0.0232942"/>
<path d="M15.3838 7.74187C15.3844 7.74162 15.3858 7.7409 15.3912 7.73939C15.4017 7.73539 15.4124 7.71001 15.4124 7.71001C15.4177 7.67573 15.3932 7.66725 15.3932 7.66725C15.3518 7.65901 15.3508 7.6953 15.3508 7.6953C15.3394 7.74257 15.3777 7.74211 15.3838 7.74184L15.3838 7.74187ZM15.1997 7.57949C15.202 7.5952 15.2243 7.61794 15.2277 7.62184C15.2318 7.62536 15.2603 7.6551 15.2699 7.66839C15.2795 7.68175 15.3115 7.74216 15.3115 7.74216C15.3115 7.74216 15.3171 7.74124 15.3195 7.73663C15.325 7.72722 15.298 7.65401 15.2953 7.64897C15.2854 7.62674 15.2693 7.61016 15.253 7.59282C15.2492 7.59038 15.2359 7.57326 15.2213 7.55488C15.2502 7.59188 15.3243 7.69707 15.3462 7.74383C15.3462 7.74383 15.3435 7.69399 15.3408 7.66722C15.3316 7.58916 15.3112 7.56499 15.3047 7.5537C15.2932 7.53261 15.264 7.5121 15.243 7.50487C15.2222 7.49731 15.1974 7.48693 15.171 7.47845C15.1436 7.47011 15.1647 7.49474 15.1747 7.51598C15.1873 7.54109 15.1974 7.56361 15.1997 7.57951" fill="#009B3A"/>
<path d="M15.1997 7.57949C15.202 7.5952 15.2243 7.61794 15.2277 7.62184C15.2318 7.62536 15.2603 7.6551 15.2699 7.66839C15.2795 7.68175 15.3115 7.74216 15.3115 7.74216C15.3115 7.74216 15.3171 7.74124 15.3195 7.73663C15.325 7.72722 15.298 7.65401 15.2953 7.64897C15.2854 7.62674 15.2693 7.61016 15.253 7.59282C15.2492 7.59038 15.2359 7.57326 15.2213 7.55488C15.2502 7.59188 15.3243 7.69707 15.3462 7.74383C15.3462 7.74383 15.3435 7.69399 15.3408 7.66722C15.3316 7.58916 15.3112 7.56499 15.3047 7.5537C15.2932 7.53261 15.264 7.5121 15.243 7.50487C15.2222 7.49731 15.1974 7.48693 15.171 7.47845C15.1436 7.47011 15.1647 7.49474 15.1747 7.51598C15.1873 7.54109 15.1974 7.56361 15.1997 7.57951M15.3838 7.74187C15.3844 7.74162 15.3858 7.7409 15.3912 7.73939C15.4017 7.73539 15.4124 7.71001 15.4124 7.71001C15.4177 7.67573 15.3932 7.66725 15.3932 7.66725C15.3518 7.65901 15.3508 7.6953 15.3508 7.6953C15.3394 7.74257 15.3777 7.74211 15.3838 7.74184L15.3838 7.74187Z" stroke="black" stroke-width="0.0232942"/>
<path d="M15.0977 7.70768C15.1247 7.73054 15.1368 7.74647 15.1927 7.75471C15.2492 7.76356 15.2539 7.75981 15.2539 7.75981C15.2539 7.75981 15.2832 7.74567 15.2683 7.73328C15.1854 7.69682 15.1069 7.65343 15.0671 7.60463C15.0671 7.60463 15.074 7.59791 15.1027 7.62669C15.1193 7.64356 15.1305 7.65202 15.1407 7.65995C15.1709 7.68104 15.1839 7.68705 15.214 7.70344C15.23 7.71217 15.2701 7.72157 15.2701 7.72157C15.2701 7.72157 15.2758 7.70945 15.2809 7.70802C15.2858 7.70686 15.2778 7.68783 15.243 7.65966C15.2236 7.64364 15.2065 7.62508 15.1921 7.60446C15.1921 7.60446 15.1509 7.59544 15.1063 7.588C15.073 7.58271 15.0104 7.53413 15.0115 7.54732C15.0126 7.5609 15.0209 7.60298 15.0377 7.62974C15.0547 7.65663 15.0709 7.68412 15.0977 7.70771" fill="#009B3A"/>
<path d="M15.0977 7.70768C15.1247 7.73054 15.1368 7.74647 15.1927 7.75471C15.2492 7.76356 15.2539 7.75981 15.2539 7.75981C15.2539 7.75981 15.2832 7.74567 15.2683 7.73328C15.1854 7.69682 15.1069 7.65343 15.0671 7.60463C15.0671 7.60463 15.074 7.59791 15.1027 7.62669C15.1193 7.64356 15.1305 7.65202 15.1407 7.65995C15.1709 7.68104 15.1839 7.68705 15.214 7.70344C15.23 7.71217 15.2701 7.72157 15.2701 7.72157C15.2701 7.72157 15.2758 7.70945 15.2809 7.70802C15.2858 7.70686 15.2778 7.68783 15.243 7.65966C15.2236 7.64364 15.2065 7.62508 15.1921 7.60446C15.1921 7.60446 15.1509 7.59544 15.1063 7.588C15.073 7.58271 15.0104 7.53413 15.0115 7.54732C15.0126 7.5609 15.0209 7.60298 15.0377 7.62974C15.0547 7.65663 15.0709 7.68412 15.0977 7.70771" stroke="black" stroke-width="0.0232942"/>
<path d="M14.6318 9.39477C14.6074 9.40197 14.424 9.47082 14.424 9.47082L14.3728 9.49133C14.4435 9.47543 14.4977 9.51104 14.4977 9.51104L14.7019 9.41649C14.7019 9.41649 14.7013 9.41339 14.6962 9.40973C14.6909 9.40609 14.6565 9.38733 14.6318 9.39477Z" fill="#009B3A"/>
<path d="M14.6318 9.39477C14.6074 9.40197 14.424 9.47082 14.424 9.47082L14.3728 9.49133C14.4435 9.47543 14.4977 9.51104 14.4977 9.51104L14.7019 9.41649C14.7019 9.41649 14.7013 9.41339 14.6962 9.40973C14.6909 9.40609 14.6565 9.38733 14.6318 9.39477" stroke="black" stroke-width="0.0185983"/>
<path d="M14.365 9.49767C14.3636 9.49883 14.3622 9.50368 14.3658 9.50523C14.376 9.51088 14.3732 9.51311 14.4195 9.51866C14.4662 9.52373 14.4966 9.51488 14.5046 9.50606C14.5139 9.4958 14.389 9.4767 14.3649 9.49767" fill="#009B3A"/>
<path d="M14.365 9.49767C14.3636 9.49883 14.3622 9.50368 14.3658 9.50523C14.376 9.51088 14.3732 9.51311 14.4195 9.51866C14.4662 9.52373 14.4966 9.51488 14.5046 9.50606C14.5139 9.4958 14.389 9.4767 14.3649 9.49767" stroke="black" stroke-width="0.0198959"/>
<path d="M14.0715 8.83802L14.063 8.78071C14.063 8.78071 14.0524 8.62575 14.0348 8.59467C14.0314 8.58779 14.0329 8.57169 14.0218 8.57143C14.0004 8.56983 14.0004 8.62023 13.9978 8.6659C13.963 8.8962 14.1467 9.07206 14.1467 9.07206L14.0715 8.83802Z" fill="#009B3A" stroke="black" stroke-width="0.0258276"/>
<path d="M14.9806 9.52019C14.9806 9.52019 14.9613 9.5159 14.9735 9.50085C14.9852 9.48654 15.0199 9.47888 15.0269 9.47888C15.0337 9.47859 15.0532 9.48029 15.0677 9.48434C15.0824 9.48795 15.1026 9.50085 15.0967 9.5102C15.0905 9.5191 15.0707 9.5302 15.0437 9.5302C15.0205 9.5302 15.0086 9.52962 14.9983 9.52671C14.9885 9.52296 14.9806 9.52019 14.9806 9.52019" fill="#009B3A"/>
<path d="M14.9806 9.52019C14.9806 9.52019 14.9613 9.5159 14.9735 9.50085C14.9852 9.48654 15.0199 9.47888 15.0269 9.47888C15.0337 9.47859 15.0532 9.48029 15.0677 9.48434C15.0824 9.48795 15.1026 9.50085 15.0967 9.5102C15.0905 9.5191 15.0707 9.5302 15.0437 9.5302C15.0205 9.5302 15.0086 9.52962 14.9983 9.52671C14.9885 9.52296 14.9806 9.52019 14.9806 9.52019" stroke="black" stroke-width="0.0237885"/>
<path d="M14.7814 9.41073C14.7814 9.41073 14.7183 9.38173 14.6586 9.3525C14.5798 9.31403 14.4851 9.26062 14.4192 9.16263C14.3367 9.04132 14.2649 8.97635 14.2476 8.96329C14.2297 8.95019 14.2271 8.94535 14.2206 8.95456C14.2147 8.96256 14.2188 8.96952 14.2238 8.978C14.2408 9.00561 14.2825 9.05747 14.2974 9.08532C14.3232 9.13507 14.3766 9.18939 14.3761 9.22161C14.3761 9.2261 14.3605 9.21841 14.3605 9.21841C14.3605 9.21841 14.2357 9.17565 14.1851 9.02438C14.1483 8.9147 14.1639 8.88249 14.1554 8.8277C14.1408 8.73029 14.1378 8.72239 14.0896 8.6132C14.0883 8.61049 14.0601 8.56486 14.0563 8.57499C14.0511 8.58809 14.0611 8.63691 14.0611 8.63691L14.0662 8.69315C14.0662 8.69315 14.0621 8.818 14.0621 8.82556C14.0621 8.83313 14.0307 8.91104 14.1643 9.04205C14.1643 9.04205 14.1663 9.0643 14.1484 9.04472C14.1356 9.0307 14.04 8.95725 14.0109 8.83642C13.981 8.71555 13.9766 8.59458 13.9993 8.54435C14.0198 8.49897 14.0611 8.38799 14.0435 8.29107C14.0414 8.28096 14.0386 8.25121 14.0322 8.25902C14.0295 8.2628 14.0174 8.31187 14.0102 8.32884C14.0001 8.35206 13.9844 8.3749 13.9796 8.39095C13.9702 8.41817 13.9241 8.46028 13.9331 8.53773C13.9433 8.62675 13.9491 8.64067 13.9598 8.6724C13.9635 8.68394 13.9724 8.71342 13.9666 8.71638C13.9613 8.71921 13.9424 8.68113 13.9424 8.68113C13.9424 8.68113 13.8578 8.51487 13.91 8.37999C13.9627 8.24569 14.095 8.11834 14.095 8.11834C14.095 8.11834 14.2025 8.0292 14.2244 8.00845C14.233 8.00045 14.2309 7.99444 14.2281 7.99536C14.2013 8.0021 13.9945 8.04489 13.9218 8.29131C13.9218 8.29131 13.918 8.30169 13.9127 8.29912C13.906 8.29613 13.9127 8.28457 13.9127 8.28457C13.9127 8.28457 13.9582 8.10988 14.0859 8.03063C14.2252 7.94372 14.2088 7.95645 14.2549 7.9291C14.2839 7.91107 14.3101 7.88692 14.3426 7.83325C14.3459 7.82726 14.3591 7.79601 14.3573 7.79068C14.3559 7.78539 14.3496 7.79269 14.3467 7.80154C14.3467 7.80154 14.3072 7.86249 14.2481 7.883C14.1889 7.90353 14.1407 7.87427 14.0812 7.94006C14.0216 8.00622 13.9742 8.09783 13.9742 8.09783C13.9742 8.09783 13.9587 8.12154 13.9552 8.12081C13.9487 8.11883 13.9584 8.0956 13.9584 8.0956C13.9584 8.0956 14.038 7.92675 14.1019 7.89245C14.1659 7.85788 14.2229 7.82474 14.2593 7.79669C14.3035 7.76203 14.3796 7.67715 14.4071 7.64792C14.4129 7.64166 14.4538 7.60026 14.4628 7.58683C14.4683 7.5795 14.4812 7.56889 14.4791 7.56704C14.4733 7.56268 14.4345 7.5813 14.4345 7.5813C14.4345 7.5813 14.2237 7.63938 14.0926 7.83747C14.0865 7.84666 14.0721 7.86535 14.0644 7.87325C14.0504 7.88777 14.0434 7.91196 14.0434 7.91196C14.0348 7.90489 14.1175 7.80154 14.1175 7.80154L14.132 7.73468C14.132 7.73468 14.1564 7.63424 14.2079 7.56333C14.213 7.55689 14.2434 7.52622 14.2485 7.51984C14.2587 7.50879 14.2291 7.52954 14.2344 7.52491C14.2344 7.52491 14.0378 7.66605 14.0378 7.84387C14.0378 7.87579 14.0179 7.90496 13.9905 7.94467C13.9584 7.99078 13.9477 8.01909 13.9338 8.0877C13.928 8.11655 13.922 8.14535 13.9158 8.1741C13.9158 8.1741 13.9177 8.19948 13.9095 8.19759C13.9009 8.1957 13.9039 8.1747 13.9039 8.1747C13.9039 8.1747 13.924 8.04217 13.9382 8.00137C13.9521 7.96176 13.9612 7.93478 13.9612 7.93478C13.9612 7.93478 13.9531 7.83514 13.9752 7.78052C13.9939 7.73291 14.0414 7.67019 14.0488 7.65451C14.052 7.64767 14.074 7.603 14.0802 7.55206C14.081 7.54523 14.0756 7.5509 14.0668 7.57078C14.0451 7.6195 14.0271 7.63223 13.9916 7.67807C13.9916 7.67807 13.9004 7.74411 13.8674 7.94052C13.8674 7.94052 13.8663 8.01373 13.8552 8.1285C13.8471 8.21257 13.854 8.29131 13.8635 8.33873C13.8696 8.36772 13.8811 8.36796 13.874 8.37148C13.8695 8.37373 13.8768 8.37187 13.8665 8.34995C13.8539 8.32365 13.8442 8.28319 13.8442 8.22729C13.8442 8.12481 13.8531 8.04256 13.8531 8.04256C13.8531 8.04256 13.8598 7.87698 13.7911 7.80234C13.7878 7.79846 13.8032 7.83584 13.81 7.8731C13.8185 7.91933 13.8032 7.98348 13.7987 8.00845C13.7943 8.03356 13.7485 8.143 13.7647 8.24569C13.7647 8.24569 13.8034 8.41984 13.8533 8.50426C13.8533 8.50426 13.8843 8.54062 13.8569 8.50653C13.8297 8.47245 13.7738 8.33693 13.769 8.32539C13.7647 8.31432 13.7246 8.22998 13.687 8.1957C13.6675 8.17752 13.6139 8.14537 13.6139 8.14537C13.6139 8.14537 13.5848 8.12319 13.6069 8.15264C13.6244 8.17592 13.6478 8.21761 13.6589 8.23579C13.6821 8.27333 13.7028 8.31239 13.7207 8.35272C13.7387 8.39213 13.7804 8.50804 13.7804 8.50804L13.807 8.58154C13.807 8.58154 13.8517 8.60636 13.8761 8.63347C13.896 8.65541 13.9374 8.70576 13.9717 8.79536C13.9872 8.83499 14.018 8.87129 14.018 8.87129C14.018 8.87129 14.0114 8.88387 13.984 8.83638C13.9569 8.78823 13.9304 8.69795 13.8652 8.62772C13.8156 8.57381 13.6823 8.51948 13.6823 8.51948C13.6823 8.51948 13.768 8.66874 13.7892 8.69538C13.8252 8.73805 13.8773 8.79795 13.8907 8.81378C13.9046 8.82993 13.9852 8.92942 13.997 8.94537C14.0158 8.97024 14.0282 8.9812 14.038 8.99133C14.0592 9.01395 14.1222 9.05524 14.1271 9.06173C14.128 9.06833 14.1293 9.0629 14.1239 9.05899C14.096 9.04234 14.0627 9.01606 14.0282 8.99366C13.9939 8.9709 13.8613 8.91432 13.772 8.79124C13.7509 8.75483 13.7408 8.74033 13.7337 8.74409C13.7227 8.74988 13.7938 8.98496 13.9399 9.05972C13.9399 9.05972 14.1011 9.13141 14.1368 9.15298C14.1564 9.16476 14.196 9.18222 14.2143 9.19696C14.2247 9.20559 14.2048 9.2051 14.2035 9.20486C14.1178 9.19817 13.9949 9.18683 13.9194 9.14304C13.9194 9.14304 13.887 9.1203 13.9136 9.15228C13.9348 9.17701 13.9749 9.23798 14.0524 9.2723C14.13 9.30634 14.2427 9.32619 14.2839 9.3283C14.3244 9.33056 14.4688 9.33126 14.4965 9.34023C14.5236 9.34939 14.5697 9.37892 14.5961 9.38743C14.6201 9.39519 14.6924 9.42292 14.6924 9.42292C14.6924 9.42292 14.7142 9.43485 14.7258 9.43907C14.7389 9.44428 14.7931 9.44379 14.7969 9.43366C14.8005 9.42457 14.7814 9.41073 14.7814 9.41073Z" fill="#009B3A"/>
<path d="M14.7814 9.41073C14.7814 9.41073 14.7183 9.38173 14.6586 9.3525C14.5798 9.31403 14.4851 9.26062 14.4192 9.16263C14.3367 9.04132 14.2649 8.97635 14.2476 8.96329C14.2297 8.95019 14.2271 8.94535 14.2206 8.95456C14.2147 8.96256 14.2188 8.96952 14.2238 8.978C14.2408 9.00561 14.2825 9.05747 14.2974 9.08532C14.3232 9.13507 14.3766 9.18939 14.3761 9.22161C14.3761 9.2261 14.3605 9.21841 14.3605 9.21841C14.3605 9.21841 14.2357 9.17565 14.1851 9.02438C14.1483 8.9147 14.1639 8.88249 14.1554 8.8277C14.1408 8.73029 14.1378 8.72239 14.0896 8.6132C14.0883 8.61049 14.0601 8.56486 14.0563 8.57499C14.0511 8.58809 14.0611 8.63691 14.0611 8.63691L14.0662 8.69315C14.0662 8.69315 14.0621 8.818 14.0621 8.82556C14.0621 8.83313 14.0307 8.91104 14.1643 9.04205C14.1643 9.04205 14.1663 9.0643 14.1484 9.04472C14.1356 9.0307 14.04 8.95725 14.0109 8.83642C13.981 8.71555 13.9766 8.59458 13.9993 8.54435C14.0198 8.49897 14.0611 8.38799 14.0435 8.29107C14.0414 8.28096 14.0386 8.25121 14.0322 8.25902C14.0295 8.2628 14.0174 8.31187 14.0102 8.32884C14.0001 8.35206 13.9844 8.3749 13.9796 8.39095C13.9702 8.41817 13.9241 8.46028 13.9331 8.53773C13.9433 8.62675 13.9491 8.64067 13.9598 8.6724C13.9635 8.68394 13.9724 8.71342 13.9666 8.71638C13.9613 8.71921 13.9424 8.68113 13.9424 8.68113C13.9424 8.68113 13.8578 8.51487 13.91 8.37999C13.9627 8.24569 14.095 8.11834 14.095 8.11834C14.095 8.11834 14.2025 8.0292 14.2244 8.00845C14.233 8.00045 14.2309 7.99444 14.2281 7.99536C14.2013 8.0021 13.9945 8.04489 13.9218 8.29131C13.9218 8.29131 13.918 8.30169 13.9127 8.29912C13.906 8.29613 13.9127 8.28457 13.9127 8.28457C13.9127 8.28457 13.9582 8.10988 14.0859 8.03063C14.2252 7.94372 14.2088 7.95645 14.2549 7.9291C14.2839 7.91107 14.3101 7.88692 14.3426 7.83325C14.3459 7.82726 14.3591 7.79601 14.3573 7.79068C14.3559 7.78539 14.3496 7.79269 14.3467 7.80154C14.3467 7.80154 14.3072 7.86249 14.2481 7.883C14.1889 7.90353 14.1407 7.87427 14.0812 7.94006C14.0216 8.00622 13.9742 8.09783 13.9742 8.09783C13.9742 8.09783 13.9587 8.12154 13.9552 8.12081C13.9487 8.11883 13.9584 8.0956 13.9584 8.0956C13.9584 8.0956 14.038 7.92675 14.1019 7.89245C14.1659 7.85788 14.2229 7.82474 14.2593 7.79669C14.3035 7.76203 14.3796 7.67715 14.4071 7.64792C14.4129 7.64166 14.4538 7.60026 14.4628 7.58683C14.4683 7.5795 14.4812 7.56889 14.4791 7.56704C14.4733 7.56268 14.4345 7.5813 14.4345 7.5813C14.4345 7.5813 14.2237 7.63938 14.0926 7.83747C14.0865 7.84666 14.0721 7.86535 14.0644 7.87325C14.0504 7.88777 14.0434 7.91196 14.0434 7.91196C14.0348 7.90489 14.1175 7.80154 14.1175 7.80154L14.132 7.73468C14.132 7.73468 14.1564 7.63424 14.2079 7.56333C14.213 7.55689 14.2434 7.52622 14.2485 7.51984C14.2587 7.50879 14.2291 7.52954 14.2344 7.52491C14.2344 7.52491 14.0378 7.66605 14.0378 7.84387C14.0378 7.87579 14.0179 7.90496 13.9905 7.94467C13.9584 7.99078 13.9477 8.01909 13.9338 8.0877C13.928 8.11655 13.922 8.14535 13.9158 8.1741C13.9158 8.1741 13.9177 8.19948 13.9095 8.19759C13.9009 8.1957 13.9039 8.1747 13.9039 8.1747C13.9039 8.1747 13.924 8.04217 13.9382 8.00137C13.9521 7.96176 13.9612 7.93478 13.9612 7.93478C13.9612 7.93478 13.9531 7.83514 13.9752 7.78052C13.9939 7.73291 14.0414 7.67019 14.0488 7.65451C14.052 7.64767 14.074 7.603 14.0802 7.55206C14.081 7.54523 14.0756 7.5509 14.0668 7.57078C14.0451 7.6195 14.0271 7.63223 13.9916 7.67807C13.9916 7.67807 13.9004 7.74411 13.8674 7.94052C13.8674 7.94052 13.8663 8.01373 13.8552 8.1285C13.8471 8.21257 13.854 8.29131 13.8635 8.33873C13.8696 8.36772 13.8811 8.36796 13.874 8.37148C13.8695 8.37373 13.8768 8.37187 13.8665 8.34995C13.8539 8.32365 13.8442 8.28319 13.8442 8.22729C13.8442 8.12481 13.8531 8.04256 13.8531 8.04256C13.8531 8.04256 13.8598 7.87698 13.7911 7.80234C13.7878 7.79846 13.8032 7.83584 13.81 7.8731C13.8185 7.91933 13.8032 7.98348 13.7987 8.00845C13.7943 8.03356 13.7485 8.143 13.7647 8.24569C13.7647 8.24569 13.8034 8.41984 13.8533 8.50426C13.8533 8.50426 13.8843 8.54062 13.8569 8.50653C13.8297 8.47245 13.7738 8.33693 13.769 8.3254C13.7647 8.31432 13.7246 8.22998 13.687 8.1957C13.6675 8.17752 13.6139 8.14537 13.6139 8.14537C13.6139 8.14537 13.5848 8.12319 13.6069 8.15264C13.6244 8.17592 13.6478 8.21761 13.6589 8.23579C13.6821 8.27333 13.7028 8.31239 13.7207 8.35272C13.7387 8.39213 13.7804 8.50804 13.7804 8.50804L13.807 8.58154C13.807 8.58154 13.8517 8.60636 13.8761 8.63347C13.896 8.65541 13.9374 8.70576 13.9717 8.79536C13.9872 8.83499 14.018 8.87129 14.018 8.87129C14.018 8.87129 14.0114 8.88387 13.984 8.83638C13.9569 8.78823 13.9304 8.69795 13.8652 8.62772C13.8156 8.57381 13.6823 8.51948 13.6823 8.51948C13.6823 8.51948 13.768 8.66874 13.7892 8.69538C13.8252 8.73805 13.8773 8.79795 13.8907 8.81378C13.9046 8.82993 13.9852 8.92942 13.997 8.94537C14.0158 8.97024 14.0282 8.9812 14.038 8.99133C14.0592 9.01395 14.1222 9.05524 14.1271 9.06173C14.128 9.06833 14.1293 9.0629 14.1239 9.05899C14.096 9.04234 14.0627 9.01606 14.0282 8.99366C13.9939 8.9709 13.8613 8.91432 13.772 8.79124C13.7509 8.75483 13.7408 8.74033 13.7337 8.74409C13.7227 8.74988 13.7938 8.98496 13.9399 9.05972C13.9399 9.05972 14.1011 9.13141 14.1368 9.15298C14.1564 9.16476 14.196 9.18222 14.2143 9.19696C14.2247 9.20559 14.2048 9.2051 14.2035 9.20486C14.1178 9.19817 13.9949 9.18683 13.9194 9.14304C13.9194 9.14304 13.887 9.1203 13.9136 9.15228C13.9348 9.17701 13.9749 9.23798 14.0524 9.2723C14.13 9.30634 14.2427 9.32619 14.2839 9.3283C14.3244 9.33056 14.4688 9.33126 14.4965 9.34023C14.5236 9.34939 14.5697 9.37892 14.5961 9.38743C14.6201 9.39519 14.6924 9.42292 14.6924 9.42292C14.6924 9.42292 14.7142 9.43485 14.7258 9.43907C14.7389 9.44428 14.7931 9.44379 14.7969 9.43366C14.8005 9.42457 14.7814 9.41073 14.7814 9.41073" stroke="black" stroke-width="0.0185983"/>
<path d="M15.7182 8.18649C15.7345 8.19248 15.7418 8.24106 15.7418 8.24106C15.7418 8.24106 15.7404 8.21325 15.7404 8.19955C15.7404 8.18574 15.7336 8.134 15.7336 8.134L15.7191 8.14438C15.7018 8.1582 15.6921 8.18258 15.6921 8.18258C15.6921 8.18258 15.7021 8.18094 15.7182 8.18646" fill="#009B3A"/>
<path d="M15.7182 8.18649C15.7345 8.19248 15.7418 8.24106 15.7418 8.24106C15.7418 8.24106 15.7404 8.21325 15.7404 8.19955C15.7404 8.18574 15.7336 8.134 15.7336 8.134L15.7191 8.14438C15.7018 8.1582 15.6921 8.18258 15.6921 8.18258C15.6921 8.18258 15.7021 8.18094 15.7182 8.18646" stroke="black" stroke-width="0.0232942"/>
</g>
<defs>
<clipPath id="clip0_1096:680">
<rect width="29.0909" height="16" fill="white" transform="translate(0.168457 0.5)"/>
</clipPath>
</defs>
</svg>
