<svg width="22" height="17" viewBox="0 0 22 17" fill="none" xmlns="http://www.w3.org/2000/svg">
<rect width="21" height="15.75" transform="translate(0.0378418 0.625)" fill="#3B9DFF"/>
<path d="M10.2073 15.857C9.76481 15.8071 9.24372 15.7046 9.21769 15.6625C9.20189 15.6369 9.2739 15.5995 9.3777 15.5794C9.62599 15.5312 9.63026 15.5312 10.01 15.5776C10.2259 15.604 10.3504 15.5958 10.3766 15.5535C10.4045 15.5083 10.4845 15.5167 10.6473 15.5818C10.8544 15.6647 11.0164 15.6686 11.285 15.5971C11.3361 15.5835 11.3654 15.6071 11.3555 15.6538C11.3436 15.71 11.3695 15.7207 11.4429 15.6897C11.5002 15.6655 11.6258 15.6499 11.722 15.6551L11.8967 15.6645L11.7563 15.5657L11.6159 15.4668L11.7493 15.4175C11.8343 15.386 11.912 15.3925 11.9638 15.4355C12.0681 15.522 12.7848 15.4603 13.0726 15.3401C13.1867 15.2924 13.362 15.2525 13.4622 15.2514C13.5624 15.2502 13.71 15.2118 13.7901 15.166C13.952 15.0735 14.0814 15.0548 14.0814 15.1239C14.0814 15.1764 13.5102 15.4309 13.0036 15.604C12.3157 15.8391 11.0571 15.953 10.2073 15.8571L10.2073 15.857ZM11.7633 14.9221C11.554 14.8362 11.4371 14.6282 11.5319 14.5106C11.5733 14.4593 11.567 14.4376 11.5106 14.4369C11.4544 14.4363 11.4506 14.4233 11.4978 14.3932C11.5347 14.3697 11.5826 14.2194 11.6044 14.0592C11.6261 13.8989 11.6781 13.6499 11.7199 13.5057C11.7618 13.3615 11.7956 13.1912 11.7951 13.1271C11.7942 13.0036 11.8452 12.615 11.9048 12.2922C11.9525 12.0336 11.8375 11.833 11.5608 11.6919C11.438 11.6292 11.3233 11.5333 11.3059 11.4787C11.2193 11.2073 11.0179 10.8011 10.8573 10.5741C10.7006 10.3525 10.8076 9.87894 11.0666 9.64772C11.2229 9.50818 11.2496 9.44717 11.234 9.26539C11.2237 9.14643 11.1942 9.03599 11.1684 9.01996C11.1425 9.00395 11.1188 8.96462 11.1158 8.93258C11.1127 8.90054 11.0775 8.87432 11.0374 8.87432C10.9973 8.87432 10.9709 8.90639 10.9786 8.94558C10.9968 9.03802 10.6476 8.97345 10.5383 8.86418C10.4958 8.8217 10.4367 8.78694 10.407 8.78694C10.3772 8.78694 10.3529 8.75219 10.3529 8.70971C10.3529 8.58488 10.1069 8.39502 9.88682 8.35001C9.77468 8.32707 9.62546 8.25557 9.55524 8.19111C9.46964 8.11254 9.33017 8.06866 9.13213 8.05797C8.8286 8.0416 8.51644 7.893 8.57762 7.79401C8.59659 7.76332 8.5336 7.73832 8.43727 7.73832C8.21901 7.73832 8.1517 7.64066 8.29349 7.5297C8.35277 7.4833 8.37272 7.45228 8.33783 7.46075C8.28494 7.4736 8.06103 7.24617 7.89415 7.0101C7.8715 6.97807 7.7733 6.8601 7.67594 6.74795L7.49891 6.54405L7.59026 6.73339C7.6405 6.83752 7.70508 6.92272 7.73377 6.92272C7.76245 6.92272 7.77185 6.95939 7.75466 7.00421C7.73746 7.04903 7.75139 7.10301 7.78561 7.12416C7.81984 7.14532 7.84784 7.20446 7.84784 7.2556C7.84784 7.33658 7.8328 7.33497 7.73133 7.24313C7.66725 7.18514 7.61482 7.10161 7.61482 7.05751C7.61482 7.01341 7.57471 6.96193 7.5257 6.94312C7.47128 6.92224 7.44952 6.86816 7.46981 6.80421C7.48809 6.74662 7.47576 6.68264 7.44242 6.66203C7.40908 6.64142 7.38179 6.57751 7.38179 6.52C7.38179 6.46248 7.31864 6.34728 7.24145 6.26399C7.02733 6.03296 6.96843 5.65983 7.09631 5.34456C7.21372 5.05509 7.23643 4.8255 7.14766 4.8255C7.11414 4.8255 7.10352 4.76484 7.12325 4.68621C7.14248 4.60961 7.12987 4.52941 7.09523 4.508C7.06039 4.48647 7.03225 4.50965 7.03225 4.55991C7.03225 4.60986 7.00505 4.65073 6.97179 4.65073C6.93854 4.65073 6.9164 4.59175 6.92259 4.51965C6.94397 4.2709 6.91539 4.18469 6.81154 4.18469C6.67925 4.18469 6.26832 4.39241 6.2082 4.48964C6.18314 4.53018 6.14202 4.56366 6.11683 4.56405C6.09163 4.56444 5.94982 4.6486 5.80171 4.75108C5.65359 4.85357 5.51701 4.92202 5.49818 4.90321C5.47937 4.8844 5.54794 4.81242 5.65057 4.74325C5.7532 4.67409 5.84614 4.566 5.85709 4.50304C5.86805 4.44008 5.97309 4.30343 6.09052 4.19939C6.20795 4.09533 6.25458 4.02741 6.19413 4.04847C6.02679 4.10676 6.10594 3.93811 6.2875 3.84955C6.36979 3.8094 6.45281 3.71764 6.47196 3.64565C6.51802 3.47257 6.92044 3.19485 7.12895 3.19228C7.21995 3.19116 7.45169 3.15681 7.64394 3.11597C7.83619 3.07512 8.09003 3.04822 8.20804 3.0562C8.38439 3.06812 8.42119 3.05181 8.41463 2.96467C8.40815 2.87869 8.38736 2.87068 8.30466 2.92233C8.24856 2.95736 8.18463 2.96799 8.16259 2.94594C8.1069 2.89026 8.25111 2.72828 8.35637 2.72828C8.40709 2.72828 8.42975 2.69411 8.41115 2.64567C8.39027 2.59124 8.45274 2.53078 8.59426 2.46849C8.7124 2.41648 8.75663 2.38586 8.69255 2.40046C8.53878 2.43549 8.19405 2.55625 8.06708 2.61957C8.01145 2.64732 7.91314 2.67002 7.84862 2.67002C7.7841 2.67002 7.73132 2.69313 7.73132 2.72137C7.73132 2.772 7.31609 2.93864 7.03225 3.00192C6.90612 3.03004 6.91393 3.01561 7.09051 2.89424C7.72134 2.46063 8.2821 2.2219 9.14641 2.01894C9.58955 1.91489 9.86542 1.89265 10.7315 1.89114C11.7765 1.88932 12.5606 1.98317 12.3886 2.08949C12.3454 2.11618 12.2881 2.12445 12.2613 2.10787C12.2344 2.09129 11.9402 2.06983 11.6075 2.06018C11.0997 2.04547 11.0077 2.05615 11.0348 2.12665C11.0525 2.17285 11.0999 2.19805 11.14 2.18263C11.2401 2.14425 11.7105 2.38975 12.0149 2.63914C12.1529 2.75223 12.2879 2.84477 12.3149 2.84477C12.3418 2.84477 12.3979 2.89926 12.4395 2.96586C12.5057 3.07189 12.5009 3.09066 12.401 3.11678C12.251 3.15601 12.2101 3.39276 12.3062 3.6652C12.3484 3.78491 12.3703 3.89554 12.3548 3.91104C12.3016 3.96431 11.9573 3.75486 11.7328 3.53261C11.6092 3.41024 11.4801 3.32743 11.4458 3.3486C11.4114 3.36986 11.4003 3.35993 11.421 3.32644C11.4416 3.29308 11.4183 3.23239 11.3691 3.19159C11.3199 3.15078 11.2932 3.08227 11.3097 3.03935C11.3265 2.9955 11.3013 2.9613 11.2522 2.9613C11.2042 2.9613 11.1498 2.92197 11.1313 2.87391C11.1129 2.82585 11.0699 2.78653 11.0358 2.78653C11.0017 2.78653 10.9312 2.74803 10.8792 2.70097C10.8096 2.63792 10.7394 2.62894 10.6125 2.66683C10.5178 2.69511 10.4751 2.72051 10.5177 2.72326C10.6433 2.73139 11.0604 3.18788 11.0423 3.2975C11.0332 3.3529 11.043 3.4257 11.0642 3.45927C11.0853 3.49284 11.0788 3.55838 11.0498 3.60491C11.005 3.67682 10.9597 3.66982 10.7478 3.55828C10.6107 3.4861 10.4542 3.42711 10.4 3.4272C10.2681 3.42742 10.2069 3.31851 10.3156 3.2768C10.3632 3.25853 10.4171 3.20457 10.4354 3.15689C10.4604 3.09183 10.4397 3.0794 10.3525 3.10707C10.267 3.13422 10.2364 3.11731 10.2364 3.04291C10.2364 2.98735 10.2191 2.95914 10.1981 2.98022C10.177 3.00131 10.1311 2.9948 10.0961 2.96578C10.0522 2.92933 10.0327 2.97594 10.0332 3.11642C10.0337 3.24943 10.0694 3.33969 10.1364 3.37718C10.1927 3.40872 10.2266 3.45438 10.2116 3.47866C10.1966 3.50293 10.255 3.51252 10.3414 3.49997C10.4474 3.48458 10.5839 3.5348 10.7607 3.6542C10.9628 3.79069 11.0272 3.81167 11.0417 3.74582C11.0704 3.61558 11.1249 3.63997 11.3731 3.8941C11.4986 4.02265 11.6268 4.11932 11.658 4.10892C11.7237 4.08702 11.8757 4.22886 12.016 4.44295C12.1142 4.59275 12.2566 4.65666 12.187 4.51967C12.1666 4.47962 12.2044 4.50874 12.2709 4.58438C12.3374 4.66002 12.3915 4.76488 12.391 4.8174C12.3902 4.90034 12.3827 4.90141 12.3336 4.82551C12.2834 4.74784 12.2765 4.74784 12.2717 4.82551C12.2679 4.88549 12.2569 4.89006 12.2368 4.84008C12.1898 4.72367 11.9373 4.74901 11.9469 4.86918C11.952 4.93372 11.9069 4.97794 11.8239 4.98974C11.7518 5 11.6928 5.03623 11.6928 5.07026C11.6928 5.10882 11.605 5.12036 11.4598 5.10088C11.2695 5.07536 11.2265 5.08731 11.2254 5.16603C11.2247 5.21905 11.1729 5.32797 11.1102 5.40808C11.0476 5.48818 10.9957 5.5897 10.995 5.63367C10.9939 5.70144 10.9783 5.70144 10.8928 5.63367C10.7991 5.5595 10.7993 5.56542 10.8952 5.71557C11.009 5.89385 10.9894 5.95275 10.7487 6.15533C10.5843 6.29362 10.5307 6.53222 10.6478 6.60456C10.7333 6.65745 10.8273 6.92037 10.785 6.98872C10.7345 7.07046 10.5813 6.92584 10.492 6.71206C10.4368 6.57998 10.3658 6.52045 10.2316 6.4936C9.94532 6.43635 9.82857 6.4494 9.82857 6.53863C9.82857 6.59132 9.78783 6.6099 9.71438 6.5907C9.58247 6.5562 9.22811 6.75807 9.10032 6.9405C8.9881 7.10072 8.98957 7.29272 9.10487 7.53571C9.21215 7.76178 9.29904 7.80639 9.53869 7.75846C9.65863 7.73447 9.72447 7.68006 9.74826 7.58528C9.76734 7.50926 9.81288 7.44506 9.84946 7.44261C9.88603 7.44016 9.96173 7.42939 10.0177 7.41867C10.1696 7.38956 10.194 7.48037 10.0888 7.6838C10.0371 7.78384 10.0096 7.88051 10.0277 7.89861C10.0458 7.91672 10.0305 7.96778 9.99374 8.01209C9.93837 8.0788 9.96469 8.08848 10.1468 8.06841C10.5075 8.02865 10.5789 8.07015 10.5754 8.31786C10.5697 8.73596 10.7055 8.91004 10.9397 8.7847C11.0169 8.74338 11.0872 8.74345 11.1646 8.78491C11.3145 8.86513 11.3215 8.86371 11.4488 8.72703C11.5094 8.66203 11.6087 8.59875 11.6695 8.58641C11.7304 8.57406 11.8303 8.54415 11.8917 8.51992C11.9699 8.48904 11.9906 8.49624 11.9611 8.54404C11.9379 8.58152 11.9467 8.61219 11.9806 8.61219C12.0146 8.61219 12.0423 8.58753 12.0423 8.55739C12.0423 8.52725 12.1125 8.53902 12.1984 8.58354C12.2842 8.62806 12.38 8.64867 12.4113 8.62934C12.4425 8.61001 12.4513 8.62148 12.4307 8.65483C12.41 8.68818 12.4519 8.73119 12.5236 8.75042C12.7069 8.79955 12.7534 8.79525 12.7148 8.73273C12.6963 8.70291 12.7119 8.65953 12.7495 8.63635C12.7921 8.61002 12.8021 8.61944 12.7761 8.66145C12.7375 8.72398 12.8186 8.75177 13.0181 8.74436C13.0582 8.74287 13.0914 8.78462 13.092 8.83713C13.0935 8.97079 13.4905 9.28446 13.7141 9.32859C13.9395 9.37309 14.1396 9.53378 14.1396 9.67031C14.1396 9.72538 14.1675 9.7877 14.2016 9.80879C14.2422 9.83388 14.2276 9.89046 14.1595 9.97244C14.1022 10.0413 14.0923 10.0653 14.1375 10.0256C14.2042 9.96706 14.2895 9.99178 14.5895 10.1567C14.7928 10.2684 15.0066 10.3599 15.0646 10.3599C15.1226 10.3599 15.216 10.4105 15.272 10.4725C15.328 10.5344 15.4107 10.5709 15.4558 10.5536C15.5151 10.5309 15.5377 10.5709 15.5377 10.6984C15.5377 10.8227 15.4612 10.9643 15.2785 11.1783C15.136 11.3454 15.0016 11.5638 14.9799 11.6637C14.92 11.9393 14.6587 12.272 14.4454 12.344C14.3413 12.3791 14.2561 12.4446 14.2561 12.4894C14.2561 12.5343 14.184 12.6173 14.0958 12.6739C14.0077 12.7306 13.8884 12.8354 13.8306 12.9069C13.5445 13.2608 13.2328 13.509 13.1031 13.4862C13.0025 13.4685 12.9738 13.4873 12.9866 13.5627C13.0047 13.6698 12.8792 13.8553 12.7886 13.8553C12.7583 13.8553 12.5911 13.9783 12.417 14.1286C12.2068 14.3101 12.1239 14.4163 12.1702 14.4449C12.2192 14.4752 12.1975 14.5239 12.0974 14.6085C11.9638 14.7215 11.9613 14.734 12.0568 14.8083C12.1129 14.8519 12.1588 14.9013 12.1588 14.9181C12.1588 14.992 11.9387 14.9942 11.7633 14.9222L11.7633 14.9221ZM11.529 4.90222C11.4869 4.88539 11.4366 4.88746 11.4173 4.90682C11.3979 4.92618 11.4323 4.93995 11.4938 4.93741C11.5616 4.93462 11.5754 4.92082 11.529 4.90222L11.529 4.90222ZM11.9238 4.638C11.9249 4.61497 11.8865 4.61122 11.8384 4.62966C11.7874 4.64926 11.7507 4.63034 11.7502 4.58414C11.7494 4.51973 11.7397 4.52028 11.6973 4.58711C11.6659 4.63685 11.6705 4.72408 11.709 4.80876L11.7727 4.9484L11.8472 4.81413C11.8882 4.74028 11.9226 4.66102 11.9238 4.638L11.9238 4.638ZM10.0616 4.80181C10.0616 4.79017 10.0017 4.74138 9.92846 4.69339C9.80901 4.61513 9.78291 4.61617 9.67503 4.70353C9.55806 4.79825 9.56171 4.80122 9.80819 4.81195C9.94758 4.81802 10.0616 4.81345 10.0616 4.80181L10.0616 4.80181ZM9.92151 4.50193C9.8158 4.42463 9.81554 4.41906 9.91595 4.38052C9.97384 4.35831 10.1196 4.36639 10.2398 4.39849C10.4253 4.44799 10.4533 4.44358 10.4249 4.36946C10.4032 4.31289 10.4152 4.29683 10.4591 4.32391C10.4963 4.34693 10.5728 4.33892 10.6292 4.30611C10.7222 4.25195 10.7202 4.24631 10.6078 4.2447C10.5129 4.24335 10.484 4.20659 10.484 4.08727C10.484 4.00166 10.4348 3.89567 10.3748 3.85174C10.3147 3.80781 10.2721 3.75989 10.2801 3.74524C10.3204 3.67154 10.2851 3.60211 10.2073 3.60211C10.1592 3.60211 10.1199 3.57371 10.1199 3.539C10.1199 3.50429 10.0871 3.48764 10.0471 3.502C10.007 3.51636 9.92773 3.50418 9.87089 3.47492C9.79064 3.43363 9.7341 3.46147 9.61799 3.59946C9.53573 3.69721 9.44736 3.76416 9.4216 3.74824C9.39583 3.73232 9.35984 3.75815 9.34162 3.80565C9.32339 3.85314 9.3272 3.88618 9.35008 3.87908C9.37295 3.87197 9.46493 3.94018 9.55447 4.03066C9.65633 4.13359 9.75208 4.1818 9.81027 4.15947C9.93042 4.11336 10.1316 4.17683 10.0882 4.24713C10.0698 4.27687 10.0154 4.3012 9.96736 4.3012C9.91614 4.3012 9.89718 4.27336 9.92154 4.23394C9.9475 4.19193 9.9375 4.18251 9.89491 4.20884C9.85739 4.23202 9.84178 4.27539 9.86021 4.30522C9.87865 4.33505 9.86597 4.35945 9.83204 4.35945C9.7981 4.35945 9.77034 4.33324 9.77034 4.3012C9.77034 4.1987 9.55195 4.23892 9.5238 4.34661C9.49178 4.46904 9.62746 4.62402 9.68506 4.53081C9.71091 4.48899 9.74499 4.48901 9.79545 4.53089C9.8356 4.56421 9.88569 4.57422 9.90678 4.55314C9.92786 4.53205 9.94511 4.54976 9.94511 4.59248C9.94511 4.6352 9.96473 4.65054 9.98871 4.62655C10.0127 4.60257 9.98245 4.54649 9.92151 4.50194L9.92151 4.50193ZM10.3529 4.18811C10.3529 4.15796 10.3788 4.11728 10.4105 4.0977C10.4435 4.07729 10.4533 4.10068 10.4334 4.15252C10.3947 4.25344 10.3529 4.27191 10.3529 4.18811H10.3529ZM9.62126 4.04088C9.55907 3.99384 9.53881 3.95452 9.57624 3.9535C9.68691 3.95049 9.82859 4.01836 9.82859 4.07439C9.82859 4.15074 9.74964 4.13798 9.62126 4.04088ZM11.5763 4.60909C11.5763 4.60221 11.5266 4.56999 11.4659 4.53749C11.3872 4.49537 11.3384 4.49896 11.2961 4.55001C11.2514 4.60385 11.2788 4.6216 11.4065 4.6216C11.4999 4.6216 11.5763 4.61597 11.5763 4.60909V4.60909ZM10.7024 4.47596C10.7024 4.44392 10.6616 4.4177 10.6116 4.4177C10.5617 4.4177 10.537 4.44392 10.5568 4.47596C10.5766 4.508 10.6175 4.53422 10.6476 4.53422C10.6778 4.53422 10.7024 4.508 10.7024 4.47596ZM10.9063 4.47596C10.8865 4.44392 10.8588 4.4177 10.8446 4.4177C10.8305 4.4177 10.819 4.44392 10.819 4.47596C10.819 4.508 10.8467 4.53422 10.8807 4.53422C10.9146 4.53422 10.9261 4.508 10.9063 4.47596ZM9.013 4.18274C8.9391 4.13334 8.95033 4.10246 9.08582 3.98253C9.17394 3.90454 9.24603 3.80824 9.24603 3.76854C9.24603 3.72884 9.20885 3.7472 9.16341 3.80935C9.11797 3.8715 9.06117 3.90272 9.03719 3.87874C9.01321 3.85476 9.02417 3.83514 9.06155 3.83514C9.09893 3.83514 9.12952 3.79582 9.12952 3.74776C9.12952 3.63469 9.0193 3.63445 8.97594 3.74742C8.95757 3.7953 8.91864 3.8197 8.88944 3.80165C8.86023 3.7836 8.85142 3.74443 8.86985 3.7146C8.88829 3.68478 8.87715 3.66037 8.84511 3.66037C8.81307 3.66037 8.77039 3.68701 8.75026 3.71958C8.73014 3.75214 8.68647 3.76197 8.65322 3.74142C8.61425 3.71734 8.62085 3.68627 8.67181 3.65398C8.73617 3.6132 8.73462 3.60412 8.66347 3.60507C8.55286 3.60655 8.25807 3.77203 8.36105 3.77482C8.403 3.77596 8.42262 3.80066 8.40467 3.82971C8.38671 3.85876 8.43104 3.87023 8.50318 3.85518L8.63433 3.82784L8.50006 3.90807L8.36579 3.9883L8.52763 4.06204C8.64438 4.11523 8.69554 4.11756 8.71126 4.07041C8.72699 4.02324 8.75656 4.02456 8.81753 4.07516C8.88561 4.13166 8.88734 4.15457 8.82643 4.19321C8.7772 4.22444 8.81178 4.24115 8.92562 4.24115C9.0617 4.24115 9.08104 4.22822 9.013 4.18274L9.013 4.18274ZM8.79224 3.97467C8.709 3.88461 8.76521 3.86737 8.88814 3.94526C8.93162 3.97281 8.94472 4.00898 8.91727 4.02564C8.88982 4.0423 8.83356 4.01937 8.79224 3.97467L8.79224 3.97467ZM11.0791 3.96038C11.0463 3.92583 10.9355 4.01341 10.9355 4.0739C10.9355 4.10532 10.9722 4.09721 11.017 4.0559C11.0618 4.01458 11.0898 3.9716 11.0791 3.96038V3.96038ZM9.42081 4.04527C9.42081 4.03268 9.38013 4.00676 9.3304 3.98768C9.27856 3.96779 9.25517 3.97755 9.27558 4.01058C9.30979 4.06593 9.42081 4.09245 9.42081 4.04527V4.04527ZM8.53448 3.45417C8.58482 3.41032 8.55599 3.39475 8.43008 3.39777C8.33441 3.40006 8.21016 3.45266 8.15396 3.51465C8.05388 3.62506 8.05435 3.62525 8.17708 3.52357C8.3074 3.41561 8.41368 3.47555 8.34219 3.61669C8.3219 3.65674 8.34122 3.65019 8.38511 3.60212C8.42901 3.55406 8.49622 3.48748 8.53448 3.45417L8.53448 3.45417ZM9.01303 3.54043C9.01303 3.5065 8.98681 3.49494 8.95477 3.51474C8.92273 3.53454 8.89652 3.56231 8.89652 3.57644C8.89652 3.59057 8.92273 3.60213 8.95477 3.60213C8.98681 3.60213 9.01303 3.57436 9.01303 3.54043V3.54043ZM8.70606 3.09569C8.64938 3.08092 8.57073 3.08189 8.53129 3.09785C8.49185 3.11381 8.53823 3.1259 8.63435 3.12471C8.73047 3.12352 8.76274 3.11046 8.70606 3.09569ZM9.16021 3.0308C9.14227 3.01287 9.09527 3.03077 9.05575 3.07058C8.99864 3.12812 9.00533 3.13481 9.08836 3.10319C9.14581 3.08132 9.17814 3.04874 9.1602 3.0308H9.16021ZM9.82863 2.95786C9.82863 2.92771 9.80678 2.90304 9.78008 2.90304C9.75338 2.90304 9.73153 2.94121 9.73153 2.98787C9.73153 3.03452 9.75338 3.05919 9.78008 3.04268C9.80678 3.02618 9.82863 2.98801 9.82863 2.95786V2.95786ZM9.59495 2.84358C9.5603 2.77883 9.55131 2.69363 9.57496 2.65425C9.60202 2.60917 9.58088 2.61272 9.51792 2.6638C9.42419 2.73986 9.42405 2.75179 9.51577 2.85314C9.64333 2.99409 9.67355 2.99044 9.59495 2.84358H9.59495ZM9.29946 2.88211C9.28611 2.87059 9.19654 2.84358 9.10042 2.82208C8.97278 2.79353 8.94921 2.79893 9.01303 2.84212C9.0917 2.89536 9.35792 2.93252 9.29946 2.88211L9.29946 2.88211ZM8.78 2.72294C8.85768 2.66801 8.85768 2.664 8.78 2.68683C8.73194 2.70096 8.64018 2.68556 8.5761 2.6526C8.47195 2.59904 8.46807 2.60296 8.53954 2.6896C8.63264 2.80247 8.66183 2.80651 8.78 2.72294H8.78ZM9.07128 2.64271C9.07128 2.58858 9.03739 2.57016 8.97901 2.59256C8.90472 2.62107 8.90188 2.63757 8.96445 2.67723C9.06792 2.74282 9.07128 2.74173 9.07128 2.64271V2.64271ZM10.6093 2.61176C10.8381 2.61176 10.6039 2.48403 10.3514 2.47114C10.1991 2.46337 10.0776 2.42105 10.0332 2.36039C9.92939 2.21841 9.88688 2.23908 9.88688 2.43153C9.88688 2.57035 9.90721 2.59553 9.99976 2.57133C10.0618 2.55509 10.1722 2.58352 10.245 2.6345C10.3324 2.69571 10.3969 2.70759 10.435 2.66947C10.4668 2.63773 10.5452 2.61176 10.6093 2.61176H10.6093ZM9.30431 2.61176C9.30431 2.57971 9.27655 2.5535 9.24262 2.5535C9.20869 2.5535 9.19713 2.57972 9.21693 2.61176C9.23673 2.6438 9.26449 2.67001 9.27862 2.67001C9.29275 2.67001 9.30431 2.6438 9.30431 2.61176H9.30431ZM10.8882 2.04765C10.8461 2.03082 10.7959 2.03289 10.7765 2.05225C10.7572 2.07161 10.7916 2.08538 10.853 2.08285C10.9208 2.08006 10.9347 2.06625 10.8882 2.04765L10.8882 2.04765ZM12.4323 14.8085C12.3702 14.7463 12.4497 14.6709 12.5773 14.6709C12.6775 14.6709 12.6854 14.6855 12.6249 14.7583C12.5466 14.8527 12.491 14.8672 12.4323 14.8085ZM6.18769 13.3913C6.02748 13.2046 5.88585 13.0619 5.87291 13.0741C5.85999 13.0864 5.78724 13.0122 5.71124 12.9091C5.56993 12.7176 5.37362 12.5794 5.23757 12.5757C5.19563 12.5746 5.17687 12.5989 5.19588 12.6296C5.21653 12.663 5.16001 12.661 5.0555 12.6245C4.91899 12.577 4.84025 12.4783 4.69707 12.1754C4.40199 11.5512 4.39847 11.5358 4.53373 11.4634C4.60169 11.4271 4.63924 11.364 4.6211 11.3167C4.6036 11.2711 4.61468 11.2338 4.64571 11.2338C4.67675 11.2338 4.70214 11.1928 4.70214 11.1428C4.70214 11.0818 4.74542 11.0577 4.83322 11.0699C4.92415 11.0826 4.96452 11.0582 4.96503 10.9903C4.96544 10.9365 4.98511 10.8732 5.00873 10.8495C5.03235 10.8259 5.05168 10.8351 5.05168 10.8699C5.05168 10.9048 5.13032 10.9505 5.22645 10.9716C5.32257 10.9928 5.40122 11.0431 5.40122 11.0834C5.40122 11.1238 5.47331 11.193 5.56142 11.2371C5.64953 11.2813 5.73608 11.3253 5.75374 11.3349C5.7714 11.3445 5.77509 11.2601 5.76193 11.1474C5.73262 10.8964 5.84247 10.8718 5.8964 11.1173C5.91751 11.2134 5.95688 11.2921 5.98389 11.2921C6.0109 11.2921 6.06512 11.3904 6.10439 11.5105C6.14365 11.6307 6.23088 11.7855 6.29824 11.8546C6.47373 12.0345 6.56635 12.1547 6.56635 12.2026C6.56635 12.2254 6.60766 12.2898 6.65814 12.3455C6.78078 12.4811 6.80981 12.9178 6.70602 13.066C6.66124 13.1299 6.62461 13.2283 6.62461 13.2846C6.62461 13.3459 6.56483 13.4021 6.47606 13.4244C6.32929 13.4612 6.32894 13.4627 6.44693 13.5453C6.56353 13.627 6.6098 13.7428 6.52266 13.7349C6.49863 13.7327 6.34789 13.5781 6.1877 13.3914L6.18769 13.3913ZM6.6447 12.4838C6.62573 12.4344 6.59771 12.4064 6.58244 12.4217C6.56717 12.4369 6.57195 12.4774 6.59307 12.5116C6.65052 12.6045 6.68409 12.5865 6.6447 12.4838L6.6447 12.4838ZM7.18129 13.6276C7.14664 13.5715 7.59339 13.3317 7.73529 13.3302C7.8053 13.3294 7.80468 13.3201 7.73146 13.2728C7.66263 13.2283 7.66108 13.2161 7.72418 13.2154C7.78202 13.2148 7.79457 13.166 7.76933 13.0398C7.74961 12.9412 7.75914 12.865 7.79118 12.865C7.82242 12.865 7.84798 12.8912 7.84798 12.9232C7.84798 12.9553 7.90281 13.0363 7.96983 13.1034L8.09169 13.2252L7.95527 13.3214C7.88024 13.3743 7.80575 13.4178 7.78973 13.4181C7.77371 13.4184 7.6779 13.4776 7.57684 13.5496C7.38364 13.6873 7.23617 13.7164 7.1813 13.6276H7.18129ZM7.7431 12.2125C7.70466 12.1741 7.67319 12.1216 7.67319 12.096C7.67319 12.0102 7.76094 12.0482 7.83445 12.1659C7.91411 12.2935 7.85448 12.3239 7.7431 12.2125ZM16.9066 12.1514C16.93 12.0793 16.973 11.7319 17.0022 11.3795C17.0337 11.0001 17.0924 10.672 17.1463 10.5754C17.223 10.438 17.2265 10.3669 17.1686 10.1256C17.1304 9.96625 17.1175 9.73482 17.1396 9.60433C17.1753 9.39249 17.1673 9.36961 17.0576 9.36961C16.9883 9.36961 16.9359 9.332 16.9359 9.28222C16.9359 9.1721 16.824 9.17302 16.6768 9.28435C16.6144 9.33154 16.5171 9.35547 16.4606 9.33753C16.404 9.31958 16.3072 9.33199 16.2453 9.3651C16.0992 9.44331 15.8483 9.25505 15.7339 8.98139C15.6894 8.87475 15.6205 8.79395 15.5808 8.80183C15.5292 8.81208 15.5087 8.70556 15.5087 8.42853C15.5087 8.21533 15.5293 8.05363 15.5545 8.06919C15.5797 8.08476 15.5948 8.01015 15.5881 7.9034C15.5814 7.79664 15.626 7.61754 15.6872 7.50539C15.7485 7.39324 15.799 7.26217 15.7994 7.2141C15.7998 7.16604 15.8263 7.13039 15.8583 7.13488C15.9385 7.14613 16.2513 6.91783 16.211 6.8775C16.193 6.85957 16.2218 6.79689 16.2749 6.73822C16.328 6.67954 16.3511 6.63154 16.3262 6.63154C16.3012 6.63154 16.3168 6.58566 16.3608 6.52959C16.4333 6.43719 16.4312 6.43513 16.3388 6.5076C16.2828 6.55157 16.2336 6.57123 16.2296 6.55129C16.2256 6.53134 16.2184 6.48226 16.2137 6.4422C16.209 6.40215 16.1561 6.37795 16.0961 6.38842C15.9995 6.40529 15.992 6.38213 16.0298 6.18452C16.0532 6.06191 16.0702 5.89997 16.0674 5.82467C16.0597 5.61136 16.113 5.57612 16.2984 5.67201C16.4581 5.75457 16.4699 5.75332 16.4699 5.65399C16.4699 5.59531 16.4044 5.45847 16.3243 5.34989C16.1509 5.11493 16.1502 5.11157 16.2806 5.15257C16.3728 5.18158 16.3737 5.17725 16.2894 5.10705C16.1883 5.02291 16.182 5.00693 16.1719 4.81101C16.1668 4.71238 16.1585 4.70517 16.1385 4.78188C16.1238 4.83796 16.0775 4.88383 16.0355 4.88383C15.9284 4.88383 15.8769 4.65116 15.9756 4.61329C16.0191 4.59658 16.0404 4.54546 16.0228 4.49968C15.9996 4.43925 16.0194 4.42738 16.0949 4.45636C16.1764 4.48765 16.1905 4.47457 16.1603 4.39574C16.136 4.33239 16.1445 4.30928 16.1833 4.33326C16.2171 4.35419 16.2301 4.40975 16.212 4.45673C16.194 4.50371 16.244 4.65803 16.323 4.79966C16.4021 4.94129 16.4536 5.10337 16.4374 5.15984C16.4207 5.21817 16.4371 5.20759 16.4753 5.13532C16.5308 5.03019 16.5199 4.9716 16.4122 4.79728C16.3405 4.68131 16.2932 4.57509 16.307 4.56124C16.3414 4.52692 16.6811 5.01457 16.7298 5.16809C16.7514 5.23604 16.7881 5.29164 16.8115 5.29164C16.9006 5.29164 17.5185 6.66702 17.5185 6.86554C17.5185 6.91657 17.4763 6.89939 17.3998 6.81728C17.293 6.70274 17.169 6.64807 17.169 6.71558C17.169 6.75568 17.4108 7.15582 17.4351 7.15582C17.4469 7.15582 17.4401 7.11284 17.42 7.06031C17.3899 6.98193 17.4025 6.97554 17.4904 7.02471C17.5493 7.05767 17.6026 7.13342 17.6089 7.19305C17.6152 7.25268 17.637 7.38011 17.6573 7.47623C17.6776 7.57236 17.7327 7.91922 17.7796 8.24703C17.8718 8.89132 17.8265 9.72218 17.659 10.4593C17.6138 10.6581 17.5767 10.9072 17.5765 11.0127C17.5759 11.334 17.4624 11.6519 17.3364 11.6849C17.2732 11.7014 17.1569 11.8426 17.0778 11.9986C16.9283 12.2936 16.8329 12.3788 16.9067 12.1513L16.9066 12.1514ZM17.2962 6.5607C17.2543 6.5189 17.2272 6.51546 17.2272 6.55196C17.2272 6.62972 17.2961 6.69862 17.335 6.65974C17.3515 6.64318 17.3341 6.59861 17.2962 6.5607V6.5607ZM17.1427 6.55876C17.094 6.33663 16.8947 5.99188 16.8147 5.99134C16.7081 5.99065 16.5606 6.23396 16.5986 6.34784C16.6128 6.39035 16.6748 6.42778 16.7365 6.431C17.0392 6.44684 17.1102 6.46026 17.1038 6.50049C17.0931 6.56794 17.1081 6.63156 17.1347 6.63156C17.1478 6.63156 17.1514 6.59879 17.1427 6.55874L17.1427 6.55876ZM8.95473 11.899C8.95473 11.8483 8.98586 11.8172 9.02391 11.8299C9.13193 11.8659 9.14985 11.9913 9.04697 11.9913C8.99624 11.9913 8.95473 11.9498 8.95473 11.899L8.95473 11.899ZM9.15922 11.8175C9.13909 11.7849 9.1635 11.7583 9.21345 11.7583C9.31578 11.7583 9.33085 11.7932 9.25004 11.8431C9.22021 11.8616 9.17935 11.85 9.15922 11.8175V11.8175ZM7.94009 11.6625C7.89132 11.5354 7.95607 11.4764 8.02489 11.5852C8.09378 11.6941 8.09524 11.7582 8.02884 11.7582C8.00023 11.7582 7.96029 11.7152 7.94009 11.6625H7.94009ZM7.44006 11.061C7.44006 11.03 7.40074 11.0196 7.35268 11.0381C7.24649 11.0788 7.23689 10.9805 7.33879 10.8959C7.39325 10.8507 7.42957 10.8715 7.47895 10.9762C7.51561 11.0539 7.52186 11.1174 7.49284 11.1174C7.46381 11.1174 7.44006 11.092 7.44006 11.061H7.44006ZM6.3028 10.986C6.23941 10.9511 6.15328 10.8746 6.11141 10.8161C6.03037 10.7027 5.86712 10.6705 5.86712 10.7679C5.86712 10.7999 5.81469 10.8261 5.75061 10.8261C5.68653 10.8261 5.6341 10.7999 5.6341 10.7679C5.6341 10.7358 5.58167 10.7096 5.51758 10.7096C5.4535 10.7096 5.40107 10.6834 5.40107 10.6514C5.40107 10.6193 5.42751 10.5931 5.45982 10.5931C5.57486 10.5931 5.37959 10.3714 5.18124 10.2768C5.04868 10.2136 4.99312 10.1532 5.015 10.0962C5.03453 10.0453 5.01389 10.0105 4.96415 10.0105C4.91366 10.0105 4.89373 10.0452 4.91395 10.0979C4.93835 10.1615 4.90706 10.1853 4.79905 10.1853C4.71741 10.1853 4.63441 10.1591 4.61461 10.127C4.59481 10.095 4.63258 10.0688 4.69855 10.0688C4.76453 10.0688 4.82178 10.0426 4.82579 10.0105C4.82979 9.97848 4.83635 9.92824 4.84035 9.89887C4.85216 9.81227 4.93502 9.75155 4.93502 9.82949C4.93502 9.86876 4.95826 9.88652 4.98668 9.86896C5.01509 9.85141 5.07073 9.87607 5.11032 9.92379C5.14992 9.97149 5.16075 10.0105 5.1344 10.0105C5.10805 10.0105 5.11684 10.0409 5.15393 10.078C5.20501 10.129 5.24204 10.1282 5.30662 10.0747C5.37503 10.0179 5.44816 10.0324 5.67684 10.1483C5.83358 10.2277 5.99615 10.3341 6.03811 10.3847C6.08007 10.4352 6.18663 10.4766 6.27491 10.4766C6.43708 10.4766 6.59753 10.3526 6.52685 10.2819C6.50577 10.2608 6.51755 10.2436 6.55305 10.2436C6.67729 10.2436 6.68764 10.3596 6.57424 10.4814C6.49753 10.5637 6.42138 10.592 6.34315 10.5671C6.13937 10.5025 6.12702 10.6589 6.32214 10.8332C6.51275 11.0036 6.50113 11.0954 6.30279 10.986L6.3028 10.986ZM6.9965 10.8154C6.96941 10.7716 6.98624 10.7601 7.04472 10.7826C7.09414 10.8015 7.16102 10.7906 7.19335 10.7582C7.23288 10.7187 7.26494 10.7202 7.29126 10.7628C7.31279 10.7976 7.3223 10.8281 7.3124 10.8305C7.12754 10.8749 7.03041 10.8703 6.99651 10.8154L6.9965 10.8154ZM4.37381 10.6424C4.34604 10.5977 4.25214 10.5159 4.16516 10.4606C3.94242 10.319 3.85906 10.15 3.98763 10.1007C4.04214 10.0797 4.06781 10.0815 4.04469 10.1047C3.98571 10.1637 4.18013 10.3654 4.25272 10.3206C4.28623 10.2999 4.29451 10.3124 4.27168 10.3494C4.24717 10.389 4.28965 10.4296 4.37919 10.4521C4.53881 10.4921 4.55297 10.5205 4.47487 10.6438C4.43218 10.7112 4.41645 10.7109 4.37381 10.6424L4.37381 10.6424ZM4.56267 10.6267C4.58016 10.5812 4.63469 10.5284 4.68384 10.5096C4.74791 10.485 4.76312 10.5015 4.7376 10.5681C4.71801 10.6191 4.70198 10.6719 4.70198 10.6853C4.70198 10.6987 4.66348 10.7096 4.61642 10.7096C4.56638 10.7096 4.54407 10.6752 4.56267 10.6267V10.6267ZM6.79924 10.5931C6.72067 10.4463 6.78632 10.4463 6.97401 10.5931C7.11811 10.7058 7.11828 10.707 6.99062 10.7083C6.91965 10.709 6.83353 10.6572 6.79923 10.5931H6.79924ZM4.93501 10.5674C4.93501 10.5533 4.96123 10.5255 4.99327 10.5057C5.02531 10.4859 5.05152 10.4975 5.05152 10.5314C5.05152 10.5653 5.02531 10.5931 4.99327 10.5931C4.96123 10.5931 4.93501 10.5815 4.93501 10.5674V10.5674ZM5.14374 10.4844C5.11865 10.4438 5.11385 10.3949 5.13307 10.3756C5.18521 10.3235 5.24206 10.4002 5.2139 10.4846C5.19417 10.5438 5.18044 10.5438 5.14374 10.4844L5.14374 10.4844ZM4.33391 10.2639C4.31206 10.242 4.29109 10.104 4.2873 9.95713C4.28149 9.73229 4.2746 9.7172 4.24361 9.86159C4.22337 9.9559 4.18714 10.028 4.16311 10.0218C4.13908 10.0156 4.09613 10.0105 4.06765 10.0105C3.94931 10.0105 3.94278 9.61256 4.05652 9.33225C4.16836 9.05662 4.18386 9.06107 4.20712 9.3756C4.22366 9.59923 4.29108 9.67518 4.44666 9.64544C4.53793 9.628 4.58547 9.64607 4.58547 9.69821C4.58547 9.74183 4.52649 9.77918 4.4544 9.78121L4.32332 9.7849L4.4544 9.83759C4.52649 9.86657 4.58507 9.92389 4.58458 9.96498C4.58389 10.0225 4.57215 10.0215 4.53361 9.96063C4.50606 9.91716 4.46887 9.9053 4.45096 9.93429C4.43304 9.96327 4.44247 10.025 4.47191 10.0716C4.50135 10.1181 4.52376 10.1955 4.52172 10.2436C4.51882 10.312 4.51117 10.3137 4.48644 10.2515C4.4642 10.1956 4.44284 10.1916 4.41423 10.2379C4.39189 10.274 4.35574 10.2857 4.3339 10.2639L4.33391 10.2639ZM10.1297 10.0688C10.159 9.98083 10.2527 9.97176 10.2802 10.0542C10.2935 10.0943 10.2608 10.1271 10.2074 10.1271C10.154 10.1271 10.119 10.1008 10.1297 10.0688V10.0688ZM5.23104 9.98626C5.22851 9.92485 5.24228 9.89045 5.26164 9.9098C5.281 9.92916 5.28307 9.97941 5.26624 10.0215C5.24764 10.0679 5.23384 10.0541 5.23104 9.98626H5.23104ZM3.79523 9.64645C3.7285 9.10047 3.72754 9.07558 3.7722 9.04798C3.79491 9.03394 3.83154 9.18579 3.85359 9.38542C3.87564 9.58505 3.90803 9.80738 3.92556 9.87948C3.94309 9.95157 3.93096 10.0106 3.89859 10.0106C3.86622 10.0106 3.81971 9.84671 3.79523 9.64645L3.79523 9.64645ZM4.69783 9.99598C4.65401 9.84857 4.65493 9.69007 4.70005 9.61272C4.74345 9.53834 4.75729 9.57382 4.75864 9.76294C4.75962 9.89912 4.74731 10.0105 4.73129 10.0105C4.71527 10.0105 4.70021 10.004 4.69783 9.99597L4.69783 9.99598ZM7.32371 9.51411C7.32371 9.46536 7.25817 9.39561 7.17807 9.35912C7.05133 9.30137 6.97632 9.19495 7.06235 9.19495C7.11607 9.19495 7.35179 9.33915 7.39565 9.39884C7.45774 9.48335 7.44974 9.60274 7.38198 9.60274C7.34994 9.60274 7.32372 9.56286 7.32372 9.5141L7.32371 9.51411ZM4.41089 9.1367C4.36861 9.05771 4.36795 9.02018 4.40884 9.02018C4.44201 9.02018 4.46914 8.97932 4.46914 8.92936C4.46914 8.87941 4.49536 8.85474 4.5274 8.87454C4.6021 8.92071 4.6039 9.25322 4.52945 9.25322C4.49854 9.25322 4.44518 9.20079 4.41089 9.1367L4.41089 9.1367ZM4.1205 8.9508C4.12099 8.90886 4.1468 8.83522 4.17786 8.78716C4.22377 8.71612 4.2345 8.72364 4.23522 8.82742C4.23571 8.89762 4.2099 8.97126 4.17786 8.99106C4.14582 9.01086 4.12 8.99275 4.1205 8.95081V8.9508ZM3.76255 8.7726C3.73947 8.19133 3.94551 6.85869 4.06505 6.81615C4.09506 6.80547 4.11962 6.7379 4.11962 6.66599C4.11962 6.50815 4.39063 5.81793 4.49513 5.70961C4.55696 5.64552 4.57598 5.64853 4.60617 5.7272C4.62937 5.78766 4.61942 5.8078 4.57877 5.78268C4.53652 5.75657 4.52773 5.78354 4.55278 5.86246C4.57814 5.94236 4.55262 6.0171 4.47543 6.08901C4.35284 6.20323 4.23614 6.46096 4.23614 6.61746C4.23614 6.69659 4.25022 6.69357 4.32167 6.5991C4.36871 6.53691 4.40804 6.41393 4.40905 6.32582C4.41007 6.2377 4.43712 6.16561 4.46916 6.16561C4.57449 6.16561 4.53001 6.56489 4.39634 6.81922C4.28409 7.03279 4.26259 7.04978 4.24665 6.93752C4.23641 6.86543 4.2067 6.80644 4.18062 6.80644C4.06692 6.80644 4.01113 7.52584 4.11962 7.5929C4.21653 7.65279 4.19083 7.87249 4.09138 7.83433C3.96304 7.78508 3.90332 7.95369 3.89833 8.37937C3.89159 8.9546 3.89071 8.96193 3.82834 8.96193C3.7963 8.96193 3.7667 8.87673 3.76257 8.7726L3.76255 8.7726ZM4.30762 8.76335C4.32552 8.66971 4.31104 8.63201 4.2641 8.65002C4.17178 8.68544 4.09154 8.20935 4.17566 8.12525C4.21743 8.08348 4.23612 8.11692 4.23612 8.23346C4.23612 8.33659 4.29616 8.46481 4.39064 8.56342C4.51969 8.69812 4.53292 8.73945 4.47089 8.81419C4.35988 8.94796 4.27724 8.92223 4.30762 8.76336V8.76335ZM11.1571 7.78513C11.2115 7.73076 11.2425 7.73076 11.2969 7.78513C11.3513 7.8395 11.3358 7.85503 11.227 7.85503C11.1183 7.85503 11.1027 7.8395 11.1571 7.78513ZM11.5183 7.79346C11.5183 7.75639 11.5555 7.74031 11.6009 7.75774C11.6463 7.77516 11.6985 7.75009 11.717 7.70202C11.7373 7.64909 11.7794 7.63261 11.8237 7.66021C11.864 7.68528 11.9535 7.69851 12.0225 7.68959C12.0915 7.68068 12.1652 7.70115 12.1861 7.73508C12.2074 7.7695 12.1777 7.79838 12.1189 7.8004C12.0609 7.80239 11.9021 7.81681 11.7659 7.83244C11.6009 7.85138 11.5183 7.83838 11.5183 7.79346H11.5183ZM12.3223 7.78513C12.3766 7.73076 12.4077 7.73076 12.4621 7.78513C12.5164 7.8395 12.5009 7.85503 12.3922 7.85503C12.2834 7.85503 12.2679 7.8395 12.3223 7.78513ZM10.9781 7.47146C10.8892 7.42326 10.7868 7.40215 10.7506 7.42454C10.7103 7.44946 10.7008 7.43916 10.7263 7.39799C10.7527 7.35524 10.7229 7.33074 10.6445 7.33074C10.5766 7.33074 10.5338 7.35134 10.5494 7.37651C10.5649 7.40169 10.5272 7.42228 10.4654 7.42228C10.3105 7.42228 10.3248 7.34117 10.4934 7.26436C10.6065 7.21282 10.7021 7.22707 10.9886 7.33814C11.3375 7.47345 11.4424 7.56603 11.2416 7.56143C11.1855 7.56015 11.0669 7.51966 10.9781 7.47146L10.9781 7.47146ZM16.179 6.69336C16.179 6.65943 16.2052 6.63167 16.2372 6.63167C16.2693 6.63167 16.2955 6.64323 16.2955 6.65736C16.2955 6.67149 16.2693 6.69925 16.2372 6.71905C16.2052 6.73885 16.179 6.7273 16.179 6.69336V6.69336ZM16.2955 5.61562C16.2955 5.60149 16.3217 5.57373 16.3537 5.55393C16.3858 5.53412 16.412 5.54568 16.412 5.57962C16.412 5.61355 16.3858 5.64131 16.3537 5.64131C16.3217 5.64131 16.2955 5.62975 16.2955 5.61562V5.61562ZM4.76063 5.32778C4.76063 5.27972 4.78685 5.22419 4.81889 5.20438C4.85093 5.18458 4.87715 5.2077 4.87715 5.25577C4.87715 5.30383 4.85093 5.35935 4.81889 5.37916C4.78685 5.39896 4.76063 5.37584 4.76063 5.32778ZM4.99366 5.32434C4.99366 5.31021 5.01987 5.28245 5.05192 5.26264C5.08396 5.24284 5.11017 5.2544 5.11017 5.28833C5.11017 5.32226 5.08396 5.35003 5.05192 5.35003C5.01987 5.35003 4.99366 5.33847 4.99366 5.32434V5.32434ZM5.34319 5.00391C5.34319 4.96998 5.36941 4.94222 5.40145 4.94222C5.43349 4.94222 5.4597 4.95378 5.4597 4.96791C5.4597 4.98204 5.43349 5.0098 5.40145 5.0296C5.36941 5.04941 5.34319 5.03785 5.34319 5.00391V5.00391ZM5.42925 4.47402C5.40953 4.44211 5.36244 4.43457 5.3246 4.45727C5.28541 4.48077 5.29021 4.45611 5.33576 4.39996C5.41891 4.29746 5.60639 4.26707 5.6564 4.34799C5.67224 4.37362 5.63567 4.42551 5.57515 4.46331C5.50407 4.5077 5.45241 4.51149 5.42925 4.47402V4.47402ZM13.1315 3.65393C13.0735 3.62018 12.9869 3.60757 12.9392 3.6259C12.8901 3.64473 12.8678 3.63417 12.8879 3.60165C12.9075 3.56998 12.8913 3.54406 12.8521 3.54406C12.7229 3.54406 12.8547 3.46694 13.0127 3.4501C13.1941 3.43076 13.5184 3.58228 13.4685 3.66306C13.4236 3.73566 13.2646 3.73135 13.1315 3.65393L13.1315 3.65393Z" fill="white"/>
</svg>
