<svg width="118" height="34" viewBox="0 0 118 34" fill="none" xmlns="http://www.w3.org/2000/svg">
<path d="M13.3544 10.4444V23.6667H11.8056L3.87222 13.8067V23.6667H1.98333V10.4444H3.53222L11.4656 20.3044V10.4444H13.3544ZM26.3788 13.6556V23.6667H24.6599V22.1556C24.2947 22.6718 23.8099 23.0748 23.2054 23.3644C22.6136 23.6415 21.9651 23.78 21.2599 23.78C19.9251 23.78 18.8736 23.4148 18.1054 22.6844C17.3373 21.9415 16.9532 20.8522 16.9532 19.4167V13.6556H18.7666V19.2089C18.7666 20.1785 18.9995 20.9152 19.4654 21.4189C19.9314 21.91 20.5988 22.1556 21.4677 22.1556C22.4247 22.1556 23.1803 21.8659 23.7343 21.2867C24.2884 20.7074 24.5654 19.8889 24.5654 18.8311V13.6556H26.3788ZM35.4598 23.0811C35.1953 23.3078 34.8679 23.4841 34.4775 23.61C34.0872 23.7233 33.6842 23.78 33.2686 23.78C32.2612 23.78 31.4805 23.5093 30.9264 22.9678C30.3724 22.4263 30.0953 21.6518 30.0953 20.6444V15.1478H28.3953V13.6556H30.0953V11.4644H31.9086V13.6556H34.7798V15.1478H31.9086V20.5689C31.9086 21.1104 32.0409 21.5259 32.3053 21.8156C32.5824 22.1052 32.9727 22.25 33.4764 22.25C34.0305 22.25 34.5027 22.0926 34.8931 21.7778L35.4598 23.0811ZM39.3898 15.3367C39.7046 14.7574 40.1706 14.3167 40.7876 14.0144C41.4046 13.7122 42.1539 13.5611 43.0354 13.5611V15.3178C42.9346 15.3052 42.7961 15.2989 42.6198 15.2989C41.6376 15.2989 40.8632 15.5948 40.2965 16.1867C39.7424 16.7659 39.4654 17.597 39.4654 18.68V23.6667H37.652V13.6556H39.3898V15.3367ZM45.2703 13.6556H47.0837V23.6667H45.2703V13.6556ZM46.177 11.7289C45.8244 11.7289 45.5285 11.6156 45.2892 11.3889C45.0625 11.1622 44.9492 10.8852 44.9492 10.5578C44.9492 10.2304 45.0625 9.95333 45.2892 9.72666C45.5285 9.4874 45.8244 9.36777 46.177 9.36777C46.5296 9.36777 46.8192 9.48111 47.0459 9.70777C47.2851 9.92185 47.4048 10.1926 47.4048 10.52C47.4048 10.86 47.2851 11.1496 47.0459 11.3889C46.8192 11.6156 46.5296 11.7289 46.177 11.7289Z" fill="#764191"/>
<path d="M57.9886 10.443C58.6622 10.4176 59.1579 10.6083 59.4756 11.015C59.7934 11.4217 59.984 11.9746 60.0476 12.6736C60.1238 13.3727 60.0921 14.1861 59.9522 15.1139C59.8251 16.0418 59.6472 17.0268 59.4184 18.069C59.1896 19.0985 58.9355 20.1471 58.6558 21.2147C58.3762 22.2696 58.122 23.2864 57.8932 24.2651C57.6772 25.231 57.5056 26.1144 57.3785 26.9151C57.2641 27.7286 57.2514 28.3958 57.3404 28.9169V28.936C57.7471 27.9955 58.1856 26.9723 58.6558 25.8665C59.1261 24.7608 59.6154 23.6296 60.1238 22.473C60.6449 21.3037 61.1724 20.1344 61.7062 18.965C62.24 17.783 62.7675 16.6518 63.2886 15.5715C63.8097 14.4911 64.3181 13.4871 64.8138 12.5592C65.3095 11.6187 65.7734 10.7989 66.2055 10.0999C66.6504 9.40081 67.0507 8.85429 67.4066 8.46028C67.7752 8.05356 68.0866 7.84385 68.3408 7.83114C68.7729 7.81843 69.1415 7.90104 69.4466 8.07898C69.7516 8.24421 69.9931 8.49205 70.171 8.82251C70.349 9.14026 70.4761 9.53427 70.5523 10.0045C70.6413 10.4621 70.6858 10.9705 70.6858 11.5297C70.6858 12.1144 70.6477 12.7435 70.5714 13.4172C70.5079 14.0781 70.4189 14.7708 70.3045 15.4952C70.1901 16.207 70.0567 16.9442 69.9041 17.7068C69.7643 18.4566 69.6182 19.2065 69.4656 19.9564C69.1733 21.3799 68.9128 22.7463 68.684 24.0554C68.4679 25.3645 68.3599 26.4893 68.3599 27.4299C68.3599 28.2052 68.4616 28.8025 68.6649 29.222C68.8683 29.6541 69.2369 29.8384 69.7707 29.7749C69.9613 29.7621 70.1011 29.8003 70.1901 29.8892C70.2791 29.9782 70.3236 30.0799 70.3236 30.1943C70.3363 30.3214 70.2981 30.4485 70.2092 30.5756C70.1202 30.7027 69.9867 30.798 69.8088 30.8616C69.2369 30.9505 68.7539 30.8743 68.3599 30.6328C67.9786 30.404 67.6735 30.0481 67.4448 29.5651C67.216 29.0949 67.0507 28.5166 66.9491 27.8302C66.8601 27.1439 66.8156 26.3877 66.8156 25.5615C66.8156 24.8498 66.8474 24.0681 66.9109 23.2165C66.9872 22.365 67.0762 21.4943 67.1778 20.6046C67.2795 19.7022 67.3939 18.8125 67.521 17.9355C67.6608 17.0458 67.7879 16.2133 67.9023 15.438C68.0803 14.256 68.2391 13.1693 68.3789 12.1779C68.5187 11.1739 68.5887 10.3858 68.5887 9.81389C68.5887 9.25465 68.5315 8.95597 68.4171 8.91784C68.1756 9.08307 67.8769 9.43259 67.521 9.96641C67.1651 10.5002 66.7648 11.1739 66.3199 11.9873C65.8878 12.788 65.4239 13.6968 64.9282 14.7136C64.4452 15.7177 63.9432 16.7789 63.4221 17.8974C62.9137 19.0032 62.3989 20.1344 61.8778 21.291C61.3694 22.4349 60.8737 23.5533 60.3907 24.6464C59.9078 25.7267 59.4502 26.7435 59.0181 27.6968C58.5986 28.65 58.2173 29.4825 57.8742 30.1943C57.9631 30.2578 57.9949 30.3532 57.9695 30.4803C57.9568 30.6201 57.9123 30.7472 57.836 30.8616C57.7725 30.9759 57.6899 31.0649 57.5882 31.1285C57.4865 31.2047 57.3975 31.2111 57.3213 31.1475C56.6858 30.9315 56.2155 30.4548 55.9105 29.7177C55.6182 28.9932 55.472 28.1162 55.472 27.0867C55.472 26.2987 55.5292 25.4408 55.6436 24.5129C55.7707 23.5851 55.9295 22.6319 56.1202 21.6532C56.3108 20.6745 56.5206 19.6895 56.7493 18.6981C56.9908 17.6941 57.226 16.7217 57.4547 15.7812C57.4929 15.6033 57.5564 15.3681 57.6454 15.0758C57.7344 14.7835 57.817 14.4721 57.8932 14.1416C57.9822 13.8112 58.0521 13.4807 58.1029 13.1502C58.1665 12.8198 58.1983 12.5211 58.1983 12.2542C58.1983 11.9873 58.1538 11.7712 58.0648 11.606C57.9758 11.4281 57.8233 11.3391 57.6073 11.3391C57.1878 11.3391 56.7366 11.5107 56.2537 11.8538C55.7834 12.1843 55.3385 12.5974 54.9191 13.0931C54.5124 13.576 54.1692 14.0908 53.8896 14.6373C53.6227 15.1711 53.4892 15.6478 53.4892 16.0672C53.4892 16.2324 53.5147 16.3786 53.5655 16.5057V16.4866C53.6545 16.6391 53.699 16.7916 53.699 16.9442C53.7117 17.0967 53.6926 17.2365 53.6418 17.3636C53.5909 17.478 53.5147 17.5733 53.413 17.6496C53.324 17.7258 53.2287 17.764 53.127 17.764C52.9872 17.764 52.8474 17.7004 52.7076 17.5733C52.5678 17.4462 52.4661 17.2174 52.4025 16.887C52.3263 16.5057 52.3453 16.0862 52.4597 15.6287C52.5868 15.1584 52.7775 14.6818 53.0317 14.1988C53.2986 13.7158 53.6163 13.2519 53.9849 12.8071C54.3662 12.3622 54.7729 11.9619 55.2051 11.606C55.6499 11.2501 56.1075 10.9705 56.5778 10.7671C57.0607 10.5511 57.531 10.443 57.9886 10.443ZM79.1159 18.0309C79.1159 18.4249 78.9316 18.7236 78.563 18.9269C78.7283 19.0159 78.8172 19.1684 78.8299 19.3845C78.8426 19.6005 78.8363 19.8293 78.8109 20.0708C78.7982 20.2996 78.7918 20.522 78.7918 20.7381C78.8045 20.9414 78.8935 21.0813 79.0587 21.1575C79.3129 21.2846 79.7069 21.1956 80.2407 20.8906C80.7873 20.5729 81.4228 20.0581 82.1472 19.3463C82.2743 19.2192 82.3887 19.1621 82.4904 19.1748C82.6048 19.1748 82.681 19.2129 82.7192 19.2892C82.77 19.3654 82.7827 19.4671 82.7573 19.5942C82.7446 19.7213 82.6747 19.8484 82.5476 19.9755C82.2426 20.2932 81.9312 20.5983 81.6134 20.8906C81.3084 21.1702 80.997 21.4244 80.6792 21.6532C80.3742 21.8693 80.0692 22.0409 79.7641 22.168C79.4591 22.2823 79.154 22.3332 78.849 22.3205C78.5694 22.3078 78.3342 22.2442 78.1436 22.1298C77.9529 22.0027 77.7941 21.8566 77.667 21.6913C77.5399 21.5134 77.4382 21.3164 77.3619 21.1003C77.2984 20.8842 77.2475 20.6682 77.2094 20.4521C76.9933 20.719 76.7519 21.0113 76.4849 21.3291C76.218 21.6341 75.9384 21.9328 75.6461 22.2251C75.3665 22.5048 75.0869 22.7653 74.8072 23.0068C74.5403 23.2483 74.2925 23.4326 74.0637 23.5597C73.9239 23.636 73.7714 23.6995 73.6061 23.7503C73.4536 23.8012 73.3265 23.8266 73.2248 23.8266C73.0215 23.8266 72.8372 23.7694 72.672 23.655C72.494 23.5406 72.3606 23.3754 72.2716 23.1593C72.1699 22.8543 72.1699 22.4921 72.2716 22.0726C72.3733 21.6405 72.5449 21.1956 72.7864 20.7381C73.0278 20.2805 73.3265 19.8293 73.6824 19.3845C74.051 18.9269 74.4514 18.5202 74.8835 18.1643C75.3156 17.8084 75.7668 17.5225 76.2371 17.3064C76.7074 17.0776 77.1713 16.9632 77.6288 16.9632C77.8322 16.9632 78.0292 16.9823 78.2199 17.0204C78.5376 17.0967 78.7664 17.2301 78.9062 17.4208C79.046 17.6114 79.1159 17.8148 79.1159 18.0309ZM77.5335 19.0032C77.5081 19.0032 77.489 18.9968 77.4763 18.9841H77.4573C77.0505 18.857 76.6311 18.8951 76.199 19.0985C75.7795 19.3019 75.3855 19.5942 75.017 19.9755C74.6484 20.3441 74.3243 20.7508 74.0446 21.1956C73.765 21.6278 73.568 22.0091 73.4536 22.3395V22.3205C73.4028 22.4857 73.3901 22.6192 73.4155 22.7208C73.4409 22.8225 73.5617 22.8034 73.7777 22.6636C74.1463 22.4349 74.534 22.1298 74.9407 21.7485C75.3601 21.3545 75.7478 20.9669 76.1037 20.5856C76.4595 20.2043 76.7646 19.8675 77.0188 19.5751C77.2857 19.2701 77.4573 19.0794 77.5335 19.0032ZM83.9067 23.8647C83.589 23.8774 83.3221 23.8012 83.106 23.636C82.9026 23.4707 82.731 23.2356 82.5912 22.9305C82.4641 22.6255 82.3688 22.2633 82.3053 21.8438C82.2544 21.4244 82.229 20.9669 82.229 20.4712C82.229 20.0263 82.2481 19.5561 82.2862 19.0604C82.3243 18.552 82.3752 18.0372 82.4387 17.5161C82.515 16.995 82.5912 16.4739 82.6675 15.9528C82.7565 15.419 82.8454 14.9042 82.9344 14.4085C82.6802 14.4594 82.3942 14.5102 82.0765 14.5611C81.7587 14.5992 81.441 14.6373 81.1232 14.6754C80.7928 14.7136 80.4877 14.7581 80.2081 14.8089C79.9158 14.8597 79.6807 14.9106 79.5027 14.9614C79.1341 15.0504 78.8609 15.0758 78.6829 15.0377C78.505 14.9995 78.416 14.9296 78.416 14.828C78.416 14.7136 78.4986 14.5865 78.6639 14.4467C78.8291 14.2941 79.0769 14.1607 79.4074 14.0463C79.6108 13.97 79.8713 13.9065 80.1891 13.8557C80.5068 13.8048 80.8373 13.7603 81.1804 13.7222C81.5236 13.6714 81.8668 13.6269 82.2099 13.5887C82.5658 13.5379 82.8772 13.4871 83.1441 13.4362C83.2966 12.7499 83.4364 12.1398 83.5635 11.606C83.6906 11.0722 83.8177 10.6083 83.9448 10.2143C84.0974 9.71856 84.3516 9.33727 84.7074 9.07036C85.0633 8.79074 85.4001 8.65093 85.7179 8.65093C85.9721 8.65093 86.1754 8.72083 86.328 8.86064C86.4932 9.00045 86.5758 9.21652 86.5758 9.50885C86.5758 9.76305 86.5122 10.0363 86.3851 10.3286C86.2326 10.6972 86.061 11.1357 85.8704 11.6441C85.6925 12.1398 85.5145 12.6863 85.3366 13.2837C85.6543 13.2456 86.0229 13.2074 86.4423 13.1693C86.8618 13.1312 87.2876 13.0994 87.7197 13.074C88.1518 13.0486 88.5713 13.0359 88.978 13.0359C89.3974 13.0359 89.7723 13.0549 90.1028 13.0931C90.357 13.1185 90.5477 13.182 90.6748 13.2837C90.8019 13.3727 90.8654 13.4871 90.8654 13.6269C90.8654 13.8048 90.7319 13.9573 90.465 14.0844C90.1981 14.1988 89.8423 14.1925 89.3974 14.0654L85.0506 14.2941C84.9489 14.5611 84.8282 14.9487 84.6884 15.4571C84.5613 15.9655 84.4278 16.5311 84.288 17.1539C84.1609 17.764 84.0465 18.3931 83.9448 19.0413C83.8432 19.6895 83.7669 20.2805 83.7161 20.8143C83.6779 21.3482 83.6779 21.7867 83.7161 22.1298C83.7669 22.473 83.8749 22.6509 84.0402 22.6636C84.2435 22.6764 84.4659 22.6255 84.7074 22.5111C84.9616 22.384 85.2222 22.2251 85.4891 22.0345C85.756 21.8311 86.0229 21.6087 86.2898 21.3672C86.5694 21.113 86.83 20.8652 87.0715 20.6237C87.313 20.3822 87.529 20.1534 87.7197 19.9374C87.9103 19.7213 88.0565 19.5497 88.1582 19.4226C88.2853 19.2701 88.3997 19.1811 88.5014 19.1557C88.6157 19.1303 88.6984 19.1493 88.7492 19.2129C88.8127 19.2764 88.8318 19.3718 88.8064 19.4989C88.7937 19.626 88.7301 19.7658 88.6157 19.9183C88.2599 20.3631 87.8913 20.8143 87.51 21.2719C87.1287 21.7295 86.7347 22.1489 86.328 22.5302C85.9339 22.9115 85.5336 23.2292 85.1269 23.4834C84.7201 23.7249 84.3134 23.852 83.9067 23.8647ZM93.6752 18.0309C93.6752 18.4249 93.491 18.7236 93.1224 18.9269C93.2876 19.0159 93.3766 19.1684 93.3893 19.3845C93.402 19.6005 93.3956 19.8293 93.3702 20.0708C93.3575 20.2996 93.3511 20.522 93.3511 20.7381C93.3639 20.9414 93.4528 21.0813 93.6181 21.1575C93.8722 21.2846 94.2663 21.1956 94.8001 20.8906C95.3466 20.5729 95.9821 20.0581 96.7066 19.3463C96.8337 19.2192 96.9481 19.1621 97.0497 19.1748C97.1641 19.1748 97.2404 19.2129 97.2785 19.2892C97.3294 19.3654 97.3421 19.4671 97.3166 19.5942C97.3039 19.7213 97.234 19.8484 97.1069 19.9755C96.8019 20.2932 96.4905 20.5983 96.1727 20.8906C95.8677 21.1702 95.5563 21.4244 95.2386 21.6532C94.9335 21.8693 94.6285 22.0409 94.3235 22.168C94.0184 22.2823 93.7134 22.3332 93.4083 22.3205C93.1287 22.3078 92.8936 22.2442 92.7029 22.1298C92.5123 22.0027 92.3534 21.8566 92.2263 21.6913C92.0992 21.5134 91.9975 21.3164 91.9213 21.1003C91.8577 20.8842 91.8069 20.6682 91.7688 20.4521C91.5527 20.719 91.3112 21.0113 91.0443 21.3291C90.7774 21.6341 90.4978 21.9328 90.2054 22.2251C89.9258 22.5048 89.6462 22.7653 89.3666 23.0068C89.0997 23.2483 88.8518 23.4326 88.623 23.5597C88.4832 23.636 88.3307 23.6995 88.1655 23.7503C88.013 23.8012 87.8859 23.8266 87.7842 23.8266C87.5808 23.8266 87.3965 23.7694 87.2313 23.655C87.0534 23.5406 86.9199 23.3754 86.8309 23.1593C86.7293 22.8543 86.7293 22.4921 86.8309 22.0726C86.9326 21.6405 87.1042 21.1956 87.3457 20.7381C87.5872 20.2805 87.8859 19.8293 88.2417 19.3845C88.6103 18.9269 89.0107 18.5202 89.4428 18.1643C89.875 17.8084 90.3262 17.5225 90.7964 17.3064C91.2667 17.0776 91.7306 16.9632 92.1882 16.9632C92.3915 16.9632 92.5885 16.9823 92.7792 17.0204C93.0969 17.0967 93.3257 17.2301 93.4655 17.4208C93.6053 17.6114 93.6752 17.8148 93.6752 18.0309ZM92.0929 19.0032C92.0674 19.0032 92.0484 18.9968 92.0357 18.9841H92.0166C91.6099 18.857 91.1905 18.8951 90.7583 19.0985C90.3389 19.3019 89.9449 19.5942 89.5763 19.9755C89.2077 20.3441 88.8836 20.7508 88.604 21.1956C88.3244 21.6278 88.1274 22.0091 88.013 22.3395V22.3205C87.9621 22.4857 87.9494 22.6192 87.9748 22.7208C88.0003 22.8225 88.121 22.8034 88.3371 22.6636C88.7057 22.4349 89.0933 22.1298 89.5 21.7485C89.9195 21.3545 90.3071 20.9669 90.663 20.5856C91.0189 20.2043 91.3239 19.8675 91.5781 19.5751C91.845 19.2701 92.0166 19.0794 92.0929 19.0032ZM98.6948 22.6636C98.9872 22.6764 99.324 22.562 99.7053 22.3205C100.099 22.0663 100.481 21.7676 100.849 21.4244C101.23 21.0813 101.58 20.7317 101.898 20.3759C102.228 20.02 102.482 19.734 102.66 19.5179C102.787 19.3654 102.915 19.2637 103.042 19.2129C103.169 19.1621 103.27 19.1557 103.347 19.1938C103.436 19.2192 103.486 19.2892 103.499 19.4035C103.512 19.5179 103.461 19.6577 103.347 19.823C103.092 20.2043 102.794 20.6173 102.451 21.0622C102.107 21.507 101.72 21.9265 101.288 22.3205C100.868 22.7145 100.417 23.0576 99.934 23.35C99.4511 23.6296 98.9554 23.8012 98.447 23.8647C98.0276 23.8774 97.6526 23.7567 97.3222 23.5025C96.9917 23.2483 96.7121 22.9051 96.4833 22.473C96.2545 22.0281 96.0766 21.507 95.9495 20.9097C95.8224 20.2996 95.7588 19.6514 95.7588 18.965C95.7588 18.66 95.7715 18.3613 95.797 18.069C95.8097 17.764 95.8414 17.4589 95.8923 17.1539C96.1211 15.6922 96.4388 14.4212 96.8455 13.3409C97.265 12.2478 97.7289 11.3454 98.2373 10.6337C98.7457 9.90921 99.2795 9.36904 99.8387 9.01316C100.411 8.65728 100.964 8.47934 101.497 8.47934C101.79 8.46663 102.063 8.53654 102.317 8.68906C102.584 8.84158 102.768 9.09578 102.87 9.45166L102.889 9.52791C102.902 9.56604 102.908 9.62324 102.908 9.6995C102.908 9.76305 102.908 9.80753 102.908 9.83295C102.934 10.2397 102.864 10.729 102.698 11.301C102.533 11.8602 102.304 12.4576 102.012 13.0931C101.733 13.7158 101.402 14.3577 101.021 15.0186C100.652 15.6795 100.265 16.315 99.8578 16.9251C99.4638 17.5225 99.0698 18.0817 98.6758 18.6028C98.2818 19.1112 97.9259 19.537 97.6081 19.8802C97.5827 20.0581 97.5764 20.2996 97.5891 20.6046C97.6018 20.9097 97.6463 21.2147 97.7225 21.5197C97.8115 21.8121 97.9322 22.0726 98.0848 22.3014C98.2373 22.5302 98.4406 22.6509 98.6948 22.6636ZM99.7434 11.4535C99.2096 12.5338 98.7774 13.6714 98.447 14.8661C98.1292 16.0481 97.8877 17.2365 97.7225 18.4312C97.964 18.266 98.2563 17.9355 98.5995 17.4399C98.9427 16.9315 99.2985 16.3532 99.6671 15.7049C100.036 15.044 100.379 14.3513 100.697 13.6269C101.027 12.9024 101.288 12.2415 101.478 11.6441C101.682 11.034 101.783 10.532 101.783 10.138C101.796 9.74398 101.669 9.54698 101.402 9.54698C101.199 9.54698 101.008 9.61688 100.83 9.75669C100.665 9.8965 100.512 10.0681 100.373 10.2714C100.245 10.4621 100.125 10.6718 100.01 10.9006C99.9086 11.1167 99.8197 11.301 99.7434 11.4535ZM103.907 22.6636C104.098 22.6764 104.314 22.6255 104.556 22.5111C104.797 22.384 105.051 22.2251 105.318 22.0345C105.585 21.8311 105.852 21.6087 106.119 21.3672C106.386 21.113 106.64 20.8652 106.881 20.6237C107.123 20.3822 107.339 20.1534 107.53 19.9374C107.733 19.7213 107.898 19.5433 108.025 19.4035C108.14 19.2892 108.254 19.2192 108.368 19.1938C108.496 19.1557 108.597 19.1557 108.674 19.1938C108.75 19.232 108.782 19.3082 108.769 19.4226C108.769 19.5243 108.705 19.6577 108.578 19.823C108.235 20.2424 107.86 20.6872 107.453 21.1575C107.059 21.6278 106.653 22.0599 106.233 22.4539C105.814 22.8479 105.388 23.1784 104.956 23.4453C104.536 23.7122 104.123 23.852 103.717 23.8647C103.412 23.8774 103.157 23.8266 102.954 23.7122C102.763 23.5978 102.611 23.4453 102.496 23.2547C102.369 23.0513 102.28 22.8225 102.23 22.5683C102.179 22.3014 102.153 22.0218 102.153 21.7295C102.153 21.4498 102.172 21.1702 102.211 20.8906C102.249 20.611 102.299 20.3441 102.363 20.0899C102.465 19.7213 102.668 19.4226 102.973 19.1938C103.278 18.9523 103.577 18.8316 103.869 18.8316C104.098 18.8316 104.289 18.8951 104.441 19.0222C104.606 19.1493 104.689 19.34 104.689 19.5942C104.689 19.6959 104.664 19.823 104.613 19.9755C104.575 20.1153 104.517 20.2551 104.441 20.3949C104.378 20.5093 104.282 20.6936 104.155 20.9478C104.041 21.1893 103.939 21.4435 103.85 21.7104C103.761 21.9646 103.71 22.187 103.698 22.3777C103.685 22.5683 103.755 22.6636 103.907 22.6636ZM104.765 16.8679C104.689 17.0204 104.549 17.1475 104.346 17.2492C104.142 17.3509 103.939 17.4017 103.736 17.4017C103.52 17.4017 103.348 17.3318 103.221 17.192C103.107 17.0395 103.1 16.8298 103.202 16.5629C103.253 16.3595 103.31 16.1434 103.373 15.9147C103.45 15.6859 103.532 15.4762 103.621 15.2855C103.723 15.0949 103.837 14.936 103.964 14.8089C104.092 14.6691 104.25 14.5865 104.441 14.5611C104.67 14.5738 104.835 14.6754 104.937 14.8661C105.038 15.044 105.089 15.2474 105.089 15.4762C105.089 15.7304 105.058 15.9909 104.994 16.2578C104.93 16.5247 104.854 16.7281 104.765 16.8679ZM113.504 18.0309C113.504 18.4249 113.319 18.7236 112.951 18.9269C113.116 19.0159 113.205 19.1684 113.218 19.3845C113.23 19.6005 113.224 19.8293 113.198 20.0708C113.186 20.2996 113.179 20.522 113.179 20.7381C113.192 20.9414 113.281 21.0813 113.446 21.1575C113.701 21.2846 114.095 21.1956 114.628 20.8906C115.175 20.5729 115.81 20.0581 116.535 19.3463C116.662 19.2192 116.776 19.1621 116.878 19.1748C116.992 19.1748 117.069 19.2129 117.107 19.2892C117.158 19.3654 117.17 19.4671 117.145 19.5942C117.132 19.7213 117.062 19.8484 116.935 19.9755C116.63 20.2932 116.319 20.5983 116.001 20.8906C115.696 21.1702 115.385 21.4244 115.067 21.6532C114.762 21.8693 114.457 22.0409 114.152 22.168C113.847 22.2823 113.542 22.3332 113.237 22.3205C112.957 22.3078 112.722 22.2442 112.531 22.1298C112.341 22.0027 112.182 21.8566 112.055 21.6913C111.927 21.5134 111.826 21.3164 111.75 21.1003C111.686 20.8842 111.635 20.6682 111.597 20.4521C111.381 20.719 111.139 21.0113 110.873 21.3291C110.606 21.6341 110.326 21.9328 110.034 22.2251C109.754 22.5048 109.474 22.7653 109.195 23.0068C108.928 23.2483 108.68 23.4326 108.451 23.5597C108.311 23.636 108.159 23.6995 107.994 23.7503C107.841 23.8012 107.714 23.8266 107.612 23.8266C107.409 23.8266 107.225 23.7694 107.06 23.655C106.882 23.5406 106.748 23.3754 106.659 23.1593C106.558 22.8543 106.558 22.4921 106.659 22.0726C106.761 21.6405 106.932 21.1956 107.174 20.7381C107.415 20.2805 107.714 19.8293 108.07 19.3845C108.439 18.9269 108.839 18.5202 109.271 18.1643C109.703 17.8084 110.154 17.5225 110.625 17.3064C111.095 17.0776 111.559 16.9632 112.016 16.9632C112.22 16.9632 112.417 16.9823 112.607 17.0204C112.925 17.0967 113.154 17.2301 113.294 17.4208C113.434 17.6114 113.504 17.8148 113.504 18.0309ZM111.921 19.0032C111.896 19.0032 111.877 18.9968 111.864 18.9841H111.845C111.438 18.857 111.019 18.8951 110.587 19.0985C110.167 19.3019 109.773 19.5942 109.405 19.9755C109.036 20.3441 108.712 20.7508 108.432 21.1956C108.153 21.6278 107.956 22.0091 107.841 22.3395V22.3205C107.79 22.4857 107.778 22.6192 107.803 22.7208C107.829 22.8225 107.949 22.8034 108.165 22.6636C108.534 22.4349 108.922 22.1298 109.328 21.7485C109.748 21.3545 110.135 20.9669 110.491 20.5856C110.847 20.2043 111.152 19.8675 111.406 19.5751C111.673 19.2701 111.845 19.0794 111.921 19.0032Z" fill="#00959B"/>
</svg>
