<svg width="298" height="300" viewBox="0 0 298 300" fill="none" xmlns="http://www.w3.org/2000/svg">
<path fill-rule="evenodd" clip-rule="evenodd" d="M285.468 91.6694C277.983 73.7041 267.388 57.697 253.684 43.8763C240.094 30.0578 224.317 19.3473 206.696 11.7461C188.386 3.91661 169.039 -0.000137329 148.999 -0.000137329C128.847 -0.000137329 109.73 3.91661 91.4184 11.7461C73.6832 19.3473 57.9065 30.0578 44.3163 43.8763C30.6119 57.697 20.0169 73.7041 12.5321 91.6694C4.81495 110.212 0.900452 129.675 0.900452 150.057C0.900452 170.327 4.81495 189.789 12.5321 208.33C20.0169 226.296 30.6119 242.303 44.3163 256.124C57.9065 269.942 73.6832 280.653 91.4184 288.254C109.73 296.085 128.847 300 148.999 300C169.039 300 188.386 296.085 206.696 288.254C224.317 280.653 240.094 269.942 253.684 256.124C267.388 242.303 277.983 226.296 285.468 208.33C293.185 189.789 297.1 170.327 297.1 150.057C297.1 129.675 293.185 110.212 285.468 91.6694V91.6694ZM212.455 131.171C219.249 131.171 225.238 133.59 230.19 138.541C235.027 143.493 237.445 149.483 237.445 156.391C237.445 163.301 235.027 169.29 230.19 174.126C225.238 179.078 219.249 181.613 212.455 181.613C205.661 181.613 199.788 179.078 194.95 174.126C189.998 169.29 187.579 163.301 187.579 156.391C187.579 149.483 189.998 143.493 194.95 138.541C199.788 133.59 205.661 131.171 212.455 131.171ZM150.727 181.266V146.026C150.727 140.27 148.655 136.239 144.74 134.166C140.593 131.977 135.988 130.94 130.803 131.056C122.742 130.94 117.099 133.129 113.875 137.39C111.803 140.039 110.765 143.493 110.421 147.869H122.397C122.627 145.796 123.319 144.414 124.126 143.493C125.391 141.881 127.464 141.074 130.459 141.19C132.992 141.074 134.95 141.535 136.332 142.342C137.714 143.033 138.29 144.414 138.405 146.373C138.405 147.984 137.483 149.252 135.641 150.057L126.428 151.555C122.167 152.129 118.713 153.167 116.064 154.665C111.572 157.312 109.384 161.573 109.5 167.678C109.384 171.939 110.765 175.393 113.53 177.926C115.947 180.001 119.288 181.152 123.319 181.266C129.882 181.152 135.066 179.538 138.751 176.314V181.266H150.727ZM102.474 181.266V118.848H90.4973V181.266H102.474ZM170.651 181.266V158.349C170.651 154.434 171.111 151.669 172.149 149.943C172.953 148.099 174.452 146.603 176.294 145.335C178.366 143.954 180.555 143.263 182.857 143.263L186.544 143.493L186.428 131.287L183.318 131.517L178.712 132.783C175.487 134.05 172.609 136.239 170.19 139.579V133.473L158.789 133.359V181.266H170.651ZM84.3937 141.765C82.5514 135.087 78.9811 129.559 73.5672 125.298C68.0406 120.922 61.7069 118.734 54.7968 118.848C46.1603 118.734 39.0197 121.727 33.0307 127.947C26.9275 134.05 23.9319 141.305 23.9319 149.943C23.9319 158.465 26.9275 165.95 33.0307 172.053C39.0197 178.042 46.1603 181.036 54.7968 181.036C61.7069 181.036 68.0406 178.964 73.5672 174.703C78.9816 170.327 82.5514 164.913 84.3937 158.233H71.8409C70.2292 161.459 67.9242 164.108 65.0449 166.18C61.821 168.138 58.4812 169.174 54.7968 169.174C49.4984 169.174 45.0069 167.218 41.3225 163.531C37.5221 159.731 35.6799 155.239 35.794 149.943C35.6799 144.645 37.5221 140.153 41.3225 136.353C45.0069 132.668 49.4984 130.71 54.7968 130.71C58.4812 130.71 61.821 131.747 65.0449 133.82C67.9242 135.778 70.2292 138.541 71.8409 141.765H84.3937ZM138.174 156.851L135.871 158.118L129.882 159.617C127.349 159.961 125.391 160.538 124.24 161.228C122.281 162.494 121.36 164.222 121.36 166.641C121.36 168.829 121.937 170.327 123.088 171.362C124.24 172.284 125.621 172.744 127.349 172.744C130.113 172.744 132.531 171.939 134.836 170.327C137.023 168.714 138.174 165.836 138.174 161.689V156.851ZM212.455 169.635C216.139 169.635 219.249 168.369 221.782 165.72C224.317 163.07 225.585 159.961 225.699 156.391C225.585 152.59 224.317 149.483 221.782 146.947C219.249 144.3 216.139 143.033 212.455 143.147C208.885 143.033 205.775 144.3 203.242 146.947C200.709 149.483 199.327 152.59 199.327 156.391C199.327 159.961 200.709 163.07 203.242 165.72C205.775 168.369 208.885 169.635 212.455 169.635ZM276.485 155.7V144.991H244.816V155.7H276.485ZM268.423 104.108L239.519 133.013L231.918 125.414L260.824 96.5073L268.423 104.108ZM219.249 121.497V90.5178H208.54V121.497H219.249Z" fill="#ED1C24"/>
<path fill-rule="evenodd" clip-rule="evenodd" d="M230.19 138.541C225.238 133.589 219.249 131.171 212.455 131.171C205.661 131.171 199.788 133.589 194.95 138.541C189.998 143.493 187.579 149.482 187.579 156.391C187.579 163.301 189.998 169.29 194.95 174.126C199.788 179.078 205.661 181.613 212.455 181.613C219.249 181.613 225.238 179.078 230.19 174.126C235.028 169.29 237.445 163.301 237.445 156.391C237.445 149.482 235.028 143.493 230.19 138.541ZM102.474 118.848V181.266H90.4973V118.848H102.474ZM178.712 132.783C175.487 134.05 172.609 136.239 170.19 139.579V133.473L158.789 133.359V181.266H170.651V158.349C170.651 154.434 171.111 151.669 172.149 149.943C172.953 148.099 174.452 146.603 176.294 145.335C178.366 143.954 180.555 143.263 182.857 143.263L186.544 143.493L186.428 131.287L183.318 131.517L178.712 132.783ZM130.803 131.056C122.742 130.94 117.099 133.129 113.875 137.39C111.803 140.039 110.765 143.493 110.421 147.869H122.397C122.627 145.796 123.319 144.414 124.126 143.493C125.391 141.881 127.464 141.074 130.459 141.19C132.992 141.074 134.95 141.535 136.332 142.342C137.714 143.033 138.29 144.414 138.405 146.373C138.405 147.984 137.483 149.252 135.641 150.057L126.428 151.555C122.167 152.129 118.713 153.167 116.064 154.665C111.572 157.312 109.384 161.573 109.5 167.678C109.384 171.939 110.765 175.393 113.53 177.926C115.947 180.001 119.288 181.152 123.319 181.266C129.882 181.152 135.066 179.538 138.751 176.314V181.266H150.727V146.026C150.727 140.27 148.655 136.239 144.74 134.166C140.593 131.977 135.988 130.94 130.803 131.056V131.056ZM84.3937 158.233C82.5515 164.913 78.9816 170.327 73.5672 174.703C68.0406 178.963 61.7069 181.036 54.7968 181.036C46.1603 181.036 39.0197 178.042 33.0307 172.053C26.9275 165.95 23.9319 158.465 23.9319 149.943C23.9319 141.305 26.9275 134.05 33.0307 127.947C39.0197 121.727 46.1603 118.734 54.7968 118.848C61.7069 118.734 68.0406 120.922 73.5672 125.298C78.9816 129.559 82.5515 135.087 84.3937 141.765H71.8409C70.2292 138.541 67.9242 135.778 65.0449 133.82C61.821 131.747 58.4812 130.71 54.7968 130.71C49.4983 130.71 45.0069 132.668 41.3225 136.353C37.5221 140.153 35.6799 144.645 35.794 149.943C35.6799 155.239 37.5221 159.731 41.3225 163.531C45.0069 167.218 49.4983 169.174 54.7968 169.174C58.4812 169.174 61.821 168.138 65.0449 166.18C67.9242 164.108 70.2288 161.459 71.8409 158.233H84.3937ZM135.871 158.118L138.174 156.851V161.689C138.174 165.836 137.023 168.714 134.836 170.327C132.531 171.939 130.113 172.744 127.349 172.744C125.621 172.744 124.24 172.284 123.088 171.362C121.937 170.327 121.36 168.829 121.36 166.641C121.36 164.222 122.281 162.494 124.24 161.228C125.391 160.538 127.349 159.961 129.882 159.617L135.871 158.118ZM221.782 165.72C219.249 168.369 216.139 169.635 212.455 169.635C208.885 169.635 205.775 168.369 203.242 165.72C200.709 163.07 199.327 159.961 199.327 156.391C199.327 152.59 200.709 149.482 203.242 146.947C205.775 144.3 208.885 143.033 212.455 143.147C216.139 143.033 219.249 144.3 221.898 146.947C224.317 149.482 225.585 152.59 225.699 156.391C225.585 159.961 224.317 163.07 221.782 165.72ZM276.485 144.991V155.7H244.816V144.991H276.485ZM239.519 133.013L268.423 104.108L260.824 96.5073L231.918 125.414L239.519 133.013ZM219.249 90.5178V121.497H208.54V90.5178H219.249Z" fill="white"/>
</svg>
