<svg width="48" height="48" viewBox="0 0 48 48" fill="none" xmlns="http://www.w3.org/2000/svg">
<rect width="48" height="48" rx="24" fill="#FF3737"/>
<g clip-path="url(#clip0_1836_2631)">
<path fill-rule="evenodd" clip-rule="evenodd" d="M23.3662 24.3289L25.3899 21.8492C25.8503 21.2599 25.6326 20.7789 25.3303 19.5038C25.1082 18.5602 25.2827 17.4953 25.95 16.7954C27.8577 14.7978 31.7382 10.9032 31.7382 10.9032L32.2496 11.304L28.2488 16.426L29.1047 17.0944L33.2972 12.1219L33.8161 12.526L29.9616 17.7639L30.8174 18.4334L35.0262 13.4718L35.5061 13.8477L31.6732 19.1019L32.5302 19.7703L36.5309 14.6483L37 15.0144C37 15.0144 34.2375 19.7378 32.7772 22.094C32.2582 22.9293 31.2334 23.3518 30.2487 23.3583C28.9367 23.3659 28.4232 23.2619 27.9552 23.8609L25.4842 26.8889C28.1329 30.0977 30.4231 32.8808 31.5216 34.2869C32.3568 35.3562 31.592 36.9097 30.2237 36.9097C29.7687 36.9097 29.2997 36.7244 28.9595 36.2889L19.9028 25.3776C19.9028 25.3776 18.8997 26.1565 17.7968 27.0221C14.3605 21.4061 11.0076 14.3894 11.0076 11.9042C11.0076 11.7655 10.9707 10.9032 11.8006 10.9032C12.066 10.9032 12.3347 11.0289 12.5307 11.2759C13.0822 11.9714 18.397 18.3316 23.3662 24.3289ZM20.1682 28.2474L22.284 30.8094L17.8261 36.2857C17.5065 36.6952 17.0287 36.9097 16.5456 36.9097C15.2477 36.9097 14.3887 35.3909 15.2575 34.2794L20.1682 28.2474Z" fill="white"/>
</g>
<defs>
<clipPath id="clip0_1836_2631">
<rect width="26" height="26" fill="white" transform="translate(11 10.9032)"/>
</clipPath>
</defs>
</svg>
