<svg width="48" height="48" viewBox="0 0 48 48" fill="none" xmlns="http://www.w3.org/2000/svg">
<rect width="48" height="48" rx="24" fill="#00A3FF"/>
<g clip-path="url(#clip0_1836_2642)">
<path d="M26.1667 31.4865H21.8334C21.5344 31.4865 21.2917 31.7292 21.2917 32.0282C21.2917 32.3272 21.5344 32.5699 21.8334 32.5699H26.1667C26.4657 32.5699 26.7084 32.3272 26.7084 32.0282C26.7084 31.7292 26.4657 31.4865 26.1667 31.4865ZM26.1667 33.6532H21.8334C21.5344 33.6532 21.2917 33.8959 21.2917 34.1949C21.2917 34.4939 21.5344 34.7365 21.8334 34.7365H26.1667C26.4657 34.7365 26.7084 34.4939 26.7084 34.1949C26.7084 33.8959 26.4657 33.6532 26.1667 33.6532ZM26.4376 35.8199H21.5626L22.8496 36.667C23.0164 36.8165 23.2612 36.9032 23.5158 36.9032H24.4854C24.7389 36.9032 24.9848 36.8165 25.1517 36.667L26.4376 35.8199ZM30.5001 20.8709C30.5001 24.7374 27.0182 27.3525 27.0182 30.4032H20.9819C20.9819 27.3525 17.5001 24.7374 17.5001 20.8709C17.5001 16.8377 20.7479 14.6179 23.9968 14.6179C27.2479 14.6179 30.5001 16.8399 30.5001 20.8709ZM34.8334 20.1224V21.6087H32.0839C32.1056 21.3671 32.1251 21.1234 32.1251 20.8709C32.1251 20.6142 32.1067 20.3683 32.0872 20.1234H34.8334V20.1224ZM23.2981 13.0233V10.9032H24.7833V13.0309C24.5212 13.007 24.259 12.9929 23.9968 12.9929C23.7639 12.9929 23.531 13.0038 23.2981 13.0233ZM19.2432 14.4251L18.1165 12.3234L19.4252 11.6214L20.5486 13.7155C20.0957 13.9116 19.6581 14.1499 19.2432 14.4251ZM30.7113 16.3047L32.8152 14.7945L33.6807 16.0024L31.4556 17.5982C31.2487 17.1324 30.9973 16.7023 30.7113 16.3047ZM27.4505 13.7166L28.575 11.6214L29.8837 12.3234L28.7559 14.4262C28.3421 14.151 27.9044 13.9138 27.4505 13.7166ZM16.5435 17.5982L14.3183 16.0035L15.1839 14.7956L17.2877 16.3047C17.0017 16.7012 16.7515 17.1313 16.5435 17.5982ZM31.3927 24.3398L33.9429 25.3733L33.3861 26.7502L30.759 25.6864C30.9865 25.2563 31.201 24.8067 31.3927 24.3398ZM17.1924 25.591L14.6401 26.7394L14.0312 25.3841L16.5662 24.2444C16.7537 24.7135 16.9682 25.1599 17.1924 25.591ZM15.9162 21.6087H13.1667V20.1224H15.913C15.8935 20.3672 15.8751 20.6142 15.8751 20.8709C15.8751 21.1234 15.8946 21.3671 15.9162 21.6087Z" fill="white"/>
</g>
<defs>
<clipPath id="clip0_1836_2642">
<rect width="26" height="26" fill="white" transform="translate(11 10.9032)"/>
</clipPath>
</defs>
</svg>
