<svg width="48" height="48" viewBox="0 0 48 48" fill="none" xmlns="http://www.w3.org/2000/svg">
<rect width="48" height="48" rx="24" fill="#ADD974"/>
<path fill-rule="evenodd" clip-rule="evenodd" d="M31.4804 27.1667C29.2823 29.7678 26.2133 32.5888 22.9167 35.8333C16.5326 29.55 11 24.8548 11 20.2648C11 13.5979 19.7902 12.0455 22.9167 17.3658C26.0204 12.0845 34.8333 13.5752 34.8333 20.2648C34.8333 21.1141 34.6438 21.9678 34.2949 22.8333H27.4938C27.2197 22.8333 26.9673 22.9818 26.8329 23.2212L25.9522 24.792L23.493 19.9853C23.3717 19.748 23.1344 19.5909 22.869 19.5736C22.6025 19.5563 22.3468 19.6787 22.1952 19.8975L20.1585 22.8333H18.8293C18.4544 22.1855 17.7546 21.75 16.9529 21.75C15.758 21.75 14.7863 22.7207 14.7863 23.9167C14.7863 25.1127 15.758 26.0833 16.9529 26.0833C17.7546 26.0833 18.4544 25.6478 18.8293 25H20.9482C21.1952 25 21.426 24.8798 21.569 24.6783L22.6404 23.1551L25.0844 28.094C25.2079 28.3421 25.456 28.5046 25.7323 28.5154C26.0096 28.5273 26.2696 28.3876 26.4137 28.1503L28.3193 25H37V27.1667H31.4804V27.1667Z" fill="white"/>
</svg>
