<svg width="21" height="21" viewBox="0 0 21 21" fill="none" xmlns="http://www.w3.org/2000/svg">
<g clip-path="url(#clip0_1983_3169)">
<path d="M9.3375 0.804199H0.5V9.64503L11.6592 20.8042L20.5 11.9675L9.3375 0.804199ZM3.4875 6.15003C2.83667 5.49753 2.83667 4.44337 3.4875 3.79253C4.13917 3.14087 5.19417 3.1417 5.845 3.7917C6.49667 4.4442 6.49583 5.49753 5.845 6.1492C5.19417 6.80003 4.14 6.80003 3.4875 6.15003ZM6.07167 9.9117L9.6075 6.37587L10.1967 6.96503L6.66083 10.5009L6.07167 9.9117ZM7.25 11.09L10.7858 7.5542L11.0808 7.8492L7.545 11.385L7.25 11.09ZM8.13417 11.9742L11.67 8.43837L12.5542 9.32253L9.01833 12.8584L8.13417 11.9742ZM9.6075 13.4475L13.1433 9.9117L13.4383 10.2067L9.9025 13.7425L9.6075 13.4475ZM11.08 14.92L10.4908 14.3309L14.0267 10.795L14.6158 11.3842L11.08 14.92ZM11.67 15.5092L15.205 11.9742L15.5 12.2692L11.965 15.8042L11.67 15.5092Z" fill="#764191"/>
</g>
<defs>
<clipPath id="clip0_1983_3169">
<rect width="20" height="20" fill="white" transform="translate(0.5 0.804199)"/>
</clipPath>
</defs>
</svg>
