<svg width="20" height="20" viewBox="0 0 20 20" fill="none" xmlns="http://www.w3.org/2000/svg">
<g clip-path="url(#clip0_1926_2748)">
<path d="M8.8375 0H0V8.84083L11.1592 20L20 11.1633L8.8375 0ZM2.9875 5.34583C2.33667 4.69333 2.33667 3.63917 2.9875 2.98833C3.63917 2.33667 4.69417 2.3375 5.345 2.9875C5.99667 3.64 5.99583 4.69333 5.345 5.345C4.69417 5.99583 3.64 5.99583 2.9875 5.34583ZM5.57167 9.1075L9.1075 5.57167L9.69667 6.16083L6.16083 9.69667L5.57167 9.1075ZM6.75 10.2858L10.2858 6.75L10.5808 7.045L7.045 10.5808L6.75 10.2858ZM7.63417 11.17L11.17 7.63417L12.0542 8.51833L8.51833 12.0542L7.63417 11.17ZM9.1075 12.6433L12.6433 9.1075L12.9383 9.4025L9.4025 12.9383L9.1075 12.6433ZM10.58 14.1158L9.99083 13.5267L13.5267 9.99083L14.1158 10.58L10.58 14.1158ZM11.17 14.705L14.705 11.17L15 11.465L11.465 15L11.17 14.705Z" fill="#00959B"/>
</g>
<defs>
<clipPath id="clip0_1926_2748">
<rect width="20" height="20" fill="white"/>
</clipPath>
</defs>
</svg>
