<svg width="48" height="48" viewBox="0 0 48 48" fill="none" xmlns="http://www.w3.org/2000/svg">
<rect width="48" height="48" rx="24" fill="#00959B"/>
<g clip-path="url(#clip0_1836_2644)">
<path d="M35.6667 29.8334V16.0667C35.6667 15.2932 35.0402 14.6667 34.2667 14.6667H13.7333C12.9598 14.6667 12.3333 15.2932 12.3333 16.0667V29.8334H35.6667ZM14.6667 17H33.3333V27.5H14.6667V17ZM38 31V31.9334C38 32.7069 37.3735 33.3334 36.6 33.3334H11.4C10.6265 33.3334 10 32.7069 10 31.9334V31H21.6667C21.6667 31.322 21.928 31.5834 22.25 31.5834H25.75C26.072 31.5834 26.3333 31.322 26.3333 31H38Z" fill="white"/>
</g>
<defs>
<clipPath id="clip0_1836_2644">
<rect width="28" height="28" fill="white" transform="translate(10 10)"/>
</clipPath>
</defs>
</svg>
