<svg width="28" height="29" viewBox="0 0 28 29" fill="none" xmlns="http://www.w3.org/2000/svg">
<g clip-path="url(#clip0_2047_2709)">
<path d="M25.6667 20.6376V6.87095C25.6667 6.09745 25.0402 5.47095 24.2667 5.47095H3.73333C2.95983 5.47095 2.33333 6.09745 2.33333 6.87095V20.6376H25.6667ZM4.66667 7.80428H23.3333V18.3043H4.66667V7.80428ZM28 21.8043V22.7376C28 23.5111 27.3735 24.1376 26.6 24.1376H1.4C0.6265 24.1376 0 23.5111 0 22.7376V21.8043H11.6667C11.6667 22.1263 11.928 22.3876 12.25 22.3876H15.75C16.072 22.3876 16.3333 22.1263 16.3333 21.8043H28Z" fill="white"/>
</g>
<defs>
<clipPath id="clip0_2047_2709">
<rect width="28" height="28" fill="white" transform="translate(0 0.804199)"/>
</clipPath>
</defs>
</svg>
