<svg width="48" height="48" viewBox="0 0 48 48" fill="none" xmlns="http://www.w3.org/2000/svg">
<rect width="48" height="48" rx="24" fill="#303033"/>
<g clip-path="url(#clip0_1889_3044)">
<path d="M24 10.9032C16.8208 10.9032 11 16.7239 11 23.9032C11 31.0824 16.8208 36.9032 24 36.9032C31.1793 36.9032 37 31.0824 37 23.9032C37 16.7239 31.1793 10.9032 24 10.9032ZM24 34.7365C20.6168 34.7365 17.5932 33.1754 15.6052 30.739C15.8858 30.102 16.4535 29.6611 17.6278 29.3892C20.0588 28.828 22.4584 28.3264 21.3036 26.1988C17.8857 19.8938 20.3297 16.3199 24 16.3199C27.5988 16.3199 30.1035 19.7616 26.6964 26.1988C25.5752 28.3134 27.8881 28.8161 30.3722 29.3892C31.5443 29.66 32.1163 30.0988 32.3991 30.7336C30.4101 33.1744 27.3854 34.7365 24 34.7365Z" fill="white"/>
</g>
<defs>
<clipPath id="clip0_1889_3044">
<rect width="26" height="26" fill="white" transform="translate(11 10.9032)"/>
</clipPath>
</defs>
</svg>
