<svg width="28" height="29" viewBox="0 0 28 29" fill="none" xmlns="http://www.w3.org/2000/svg">
<g clip-path="url(#clip0_1983_3433)">
<path d="M14 0.804688C10.3273 0.804688 6.99996 3.78319 6.99996 7.45702C6.99996 11.1297 10.0356 15.5152 14 21.8047C17.9643 15.5152 21 11.1297 21 7.45702C21 3.78319 17.6738 0.804688 14 0.804688ZM14 10.138C12.7108 10.138 11.6666 9.09385 11.6666 7.80469C11.6666 6.51552 12.7108 5.47135 14 5.47135C15.2891 5.47135 16.3333 6.51552 16.3333 7.80469C16.3333 9.09385 15.2891 10.138 14 10.138ZM23.3333 24.138C23.3333 26.7152 19.1555 28.8047 14 28.8047C8.84446 28.8047 4.66663 26.7152 4.66663 24.138C4.66663 22.269 6.86929 20.6614 10.0426 19.9159L11.389 22.0439C10.9211 22.1232 10.4486 22.2014 10.0146 22.3262C6.15063 23.4334 5.98613 24.7867 9.99013 25.9452C12.4261 26.6487 15.5633 26.651 18.0098 25.944C22.232 24.7225 21.7011 23.2899 17.6971 22.2492C17.3518 22.1594 16.9726 22.1115 16.6051 22.0497L17.9538 19.917C21.1306 20.6614 23.3333 22.269 23.3333 24.138Z" fill="white"/>
</g>
<defs>
<clipPath id="clip0_1983_3433">
<rect width="28" height="28" fill="white" transform="translate(0 0.804688)"/>
</clipPath>
</defs>
</svg>
