<svg width="48" height="48" viewBox="0 0 48 48" fill="none" xmlns="http://www.w3.org/2000/svg">
<rect width="48" height="48" rx="24" fill="#764191"/>
<path d="M24.0001 10C20.3274 10 17.0001 12.9785 17.0001 16.6523C17.0001 20.325 20.0357 24.7105 24.0001 31C27.9644 24.7105 31.0001 20.325 31.0001 16.6523C31.0001 12.9785 27.6739 10 24.0001 10ZM24.0001 19.3333C22.7109 19.3333 21.6667 18.2892 21.6667 17C21.6667 15.7108 22.7109 14.6667 24.0001 14.6667C25.2892 14.6667 26.3334 15.7108 26.3334 17C26.3334 18.2892 25.2892 19.3333 24.0001 19.3333ZM33.3334 33.3333C33.3334 35.9105 29.1556 38 24.0001 38C18.8446 38 14.6667 35.9105 14.6667 33.3333C14.6667 31.4643 16.8694 29.8567 20.0427 29.1112L21.3891 31.2392C20.9212 31.3185 20.4487 31.3967 20.0147 31.5215C16.1507 32.6287 15.9862 33.982 19.9902 35.1405C22.4262 35.844 25.5634 35.8463 28.0099 35.1393C32.2321 33.9178 31.7012 32.4852 27.6972 31.4445C27.3519 31.3547 26.9727 31.3068 26.6052 31.245L27.9539 29.1123C31.1307 29.8567 33.3334 31.4643 33.3334 33.3333Z" fill="white"/>
</svg>
